riter neue.ufo
<glyph name="quotedbl" format="1">
  <advance width="361"/>
  <unicode hex="0022"/>
  <outline>
    <contour>
      <point x="147" y="733" type="line"/>
      <point x="147" y="745"/>
      <point x="141" y="750"/>
      <point x="135" y="750" type="curve"/>
      <point x="66" y="750" type="line"/>
      <point x="58" y="750"/>
      <point x="54" y="746"/>
      <point x="54" y="735" type="curve"/>
      <point x="54" y="478" type="line"/>
      <point x="54" y="467"/>
      <point x="58" y="463"/>
      <point x="66" y="463" type="curve"/>
      <point x="135" y="463" type="line"/>
      <point x="141" y="463"/>
      <point x="147" y="468"/>
      <point x="147" y="480" type="curve"/>
    </contour>
    <contour>
      <point x="307" y="733" type="line"/>
      <point x="307" y="745"/>
      <point x="301" y="750"/>
      <point x="295" y="750" type="curve"/>
      <point x="226" y="750" type="line"/>
      <point x="218" y="750"/>
      <point x="214" y="746"/>
      <point x="214" y="735" type="curve"/>
      <point x="214" y="478" type="line"/>
      <point x="214" y="467"/>
      <point x="218" y="463"/>
      <point x="226" y="463" type="curve"/>
      <point x="295" y="463" type="line"/>
      <point x="301" y="463"/>
      <point x="307" y="468"/>
      <point x="307" y="480" type="curve"/>
    </contour>
  </outline>
</glyph>
<glyph name="numbersign" format="1">
  <advance width="581"/>
  <unicode hex="0023"/>
  <outline>
    <contour>
      <point x="258" y="620" type="line"/>
      <point x="259" y="632"/>
      <point x="253" y="637"/>
      <point x="247" y="638" type="curve"/>
      <point x="179" y="644" type="line"/>
      <point x="171" y="645"/>
      <point x="166" y="641"/>
      <point x="165" y="630" type="curve"/>
      <point x="115" y="73" type="line"/>
      <point x="114" y="62"/>
      <point x="118" y="58"/>
      <point x="126" y="57" type="curve"/>
      <point x="194" y="51" type="line"/>
      <point x="200" y="51"/>
      <point x="207" y="55"/>
      <point x="208" y="67" type="curve"/>
    </contour>
    <contour>
      <point x="469" y="620" type="line"/>
      <point x="470" y="632"/>
      <point x="464" y="637"/>
      <point x="458" y="638" type="curve"/>
      <point x="390" y="644" type="line"/>
      <point x="382" y="645"/>
      <point x="377" y="641"/>
      <point x="376" y="630" type="curve"/>
      <point x="326" y="73" type="line"/>
      <point x="325" y="62"/>
      <point x="329" y="58"/>
      <point x="337" y="57" type="curve"/>
      <point x="405" y="51" type="line"/>
      <point x="411" y="51"/>
      <point x="418" y="55"/>
      <point x="419" y="67" type="curve"/>
    </contour>
    <contour>
      <point x="43" y="280" type="line"/>
      <point x="31" y="280"/>
      <point x="26" y="274"/>
      <point x="26" y="268" type="curve"/>
      <point x="26" y="199" type="line"/>
      <point x="26" y="191"/>
      <point x="30" y="187"/>
      <point x="41" y="187" type="curve"/>
      <point x="523" y="187" type="line"/>
      <point x="534" y="187"/>
      <point x="538" y="191"/>
      <point x="538" y="199" type="curve"/>
      <point x="538" y="268" type="line"/>
      <point x="538" y="274"/>
      <point x="533" y="280"/>
      <point x="521" y="280" type="curve"/>
    </contour>
    <contour>
      <point x="63" y="501" type="line"/>
      <point x="51" y="501"/>
      <point x="46" y="495"/>
      <point x="46" y="489" type="curve"/>
      <point x="46" y="420" type="line"/>
      <point x="46" y="412"/>
      <point x="50" y="408"/>
      <point x="61" y="408" type="curve"/>
      <point x="543" y="408" type="line"/>
      <point x="554" y="408"/>
      <point x="558" y="412"/>
      <point x="558" y="420" type="curve"/>
      <point x="558" y="489" type="line"/>
      <point x="558" y="495"/>
      <point x="553" y="501"/>
      <point x="541" y="501" type="curve"/>
    </contour>
  </outline>
</glyph>
<glyph name="quotesingle" format="1">
  <advance width="216"/>
  <unicode hex="0027"/>
  <outline>
    <contour>
      <point x="154" y="733" type="line"/>
      <point x="154" y="745"/>
      <point x="148" y="750"/>
      <point x="142" y="750" type="curve"/>
      <point x="73" y="750" type="line"/>
      <point x="65" y="750"/>
      <point x="61" y="746"/>
      <point x="61" y="735" type="curve"/>
      <point x="61" y="478" type="line"/>
      <point x="61" y="467"/>
      <point x="65" y="463"/>
      <point x="73" y="463" type="curve"/>
      <point x="142" y="463" type="line"/>
      <point x="148" y="463"/>
      <point x="154" y="468"/>
      <point x="154" y="480" type="curve"/>
    </contour>
  </outline>
</glyph>
<glyph name="asterisk" format="1">
  <advance width="550.0"/>
  <unicode hex="002A"/>
  <outline>
    <contour>
      <point x="315" y="103" type="line"/>
      <point x="324" y="103"/>
      <point x="328" y="107"/>
      <point x="328" y="120" type="curve"/>
      <point x="319" y="303" type="line"/>
      <point x="297" y="290" type="line"/>
      <point x="448" y="192" type="line"/>
      <point x="460" y="186"/>
      <point x="469" y="191"/>
      <point x="472" y="194" type="curve"/>
      <point x="511" y="262" type="line"/>
      <point x="515" y="270"/>
      <point x="514" y="275"/>
      <point x="503" y="283" type="curve"/>
      <point x="340" y="366" type="line"/>
      <point x="340" y="341" type="line"/>
      <point x="503" y="424" type="line"/>
      <point x="513" y="431"/>
      <point x="515" y="437"/>
      <point x="511" y="445" type="curve"/>
      <point x="471" y="511" type="line"/>
      <point x="468" y="516"/>
      <point x="460" y="521"/>
      <point x="447" y="513" type="curve"/>
      <point x="297" y="415" type="line"/>
      <point x="319" y="402" type="line"/>
      <point x="328" y="585" type="line"/>
      <point x="328" y="596"/>
      <point x="324" y="602"/>
      <point x="315" y="602" type="curve"/>
      <point x="238" y="602" type="line"/>
      <point x="231" y="602"/>
      <point x="225" y="597"/>
      <point x="225" y="583" type="curve"/>
      <point x="234" y="401" type="line"/>
      <point x="256" y="414" type="line"/>
      <point x="101" y="514" type="line"/>
      <point x="91" y="520"/>
      <point x="85" y="519"/>
      <point x="80" y="511" type="curve"/>
      <point x="42" y="443" type="line"/>
      <point x="39" y="437"/>
      <point x="40" y="430"/>
      <point x="52" y="421" type="curve"/>
      <point x="211" y="340" type="line"/>
      <point x="211" y="365" type="line"/>
      <point x="51" y="284" type="line"/>
      <point x="40" y="276"/>
      <point x="39" y="268"/>
      <point x="41" y="262" type="curve"/>
      <point x="80" y="196" type="line"/>
      <point x="85" y="189"/>
      <point x="90" y="186"/>
      <point x="101" y="193" type="curve"/>
      <point x="256" y="292" type="line"/>
      <point x="234" y="305" type="line"/>
      <point x="225" y="122" type="line"/>
      <point x="225" y="110"/>
      <point x="232" y="104"/>
      <point x="238" y="103" type="curve"/>
    </contour>
  </outline>
</glyph>
<glyph name="comma" format="1">
  <advance width="359"/>
  <unicode hex="002C"/>
  <outline>
    <contour>
      <point x="227" y="-47" type="line"/>
      <point x="233" y="-47"/>
      <point x="241" y="-42"/>
      <point x="241" y="-30" type="curve"/>
      <point x="241" y="164" type="line"/>
      <point x="241" y="225"/>
      <point x="221" y="241"/>
      <point x="162" y="241" type="curve" smooth="yes"/>
      <point x="105" y="241"/>
      <point x="84" y="225"/>
      <point x="84" y="164" type="curve" smooth="yes"/>
      <point x="84" y="107"/>
      <point x="90" y="83"/>
      <point x="163" y="83" type="curve"/>
      <point x="147" y="117" type="line"/>
      <point x="148" y="-32" type="line"/>
      <point x="148" y="-43"/>
      <point x="150" y="-47"/>
      <point x="158" y="-47" type="curve"/>
    </contour>
  </outline>
</glyph>
<glyph name="hyphen" format="1">
  <advance width="451"/>
  <unicode hex="002D"/>
  <outline>
    <contour>
      <point x="80" y="363" type="line"/>
      <point x="68" y="363"/>
      <point x="63" y="357"/>
      <point x="63" y="351" type="curve"/>
      <point x="63" y="262" type="line"/>
      <point x="63" y="254"/>
      <point x="67" y="250"/>
      <point x="78" y="250" type="curve"/>
      <point x="375" y="250" type="line"/>
      <point x="386" y="250"/>
      <point x="390" y="254"/>
      <point x="390" y="262" type="curve"/>
      <point x="390" y="351" type="line"/>
      <point x="390" y="357"/>
      <point x="385" y="363"/>
      <point x="373" y="363" type="curve"/>
    </contour>
  </outline>
</glyph>
<glyph name="period" format="1">
  <advance width="372"/>
  <unicode hex="002E"/>
  <outline>
    <contour>
      <point x="185" y="2" type="curve"/>
      <point x="242" y="2"/>
      <point x="262" y="19"/>
      <point x="262" y="81" type="curve" smooth="yes"/>
      <point x="262" y="142"/>
      <point x="242" y="158"/>
      <point x="183" y="158" type="curve" smooth="yes"/>
      <point x="126" y="158"/>
      <point x="105" y="142"/>
      <point x="105" y="81" type="curve" smooth="yes"/>
      <point x="105" y="19"/>
      <point x="126" y="2"/>
    </contour>
  </outline>
</glyph>
<glyph name="three" format="1">
  <advance width="561"/>
  <unicode hex="0033"/>
  <outline>
    <contour>
      <point x="268" y="-12" type="curve"/>
      <point x="424" y="-12"/>
      <point x="504" y="112"/>
      <point x="504" y="214" type="curve"/>
      <point x="504" y="307"/>
      <point x="416" y="389"/>
      <point x="323" y="389" type="curve"/>
      <point x="253" y="389"/>
      <point x="220" y="354"/>
      <point x="220" y="343" type="curve"/>
      <point x="242" y="351" type="line"/>
      <point x="481" y="541" type="line"/>
      <point x="488" y="545"/>
      <point x="462" y="649"/>
      <point x="442" y="649" type="curve"/>
      <point x="90" y="649" type="line" smooth="yes"/>
      <point x="84" y="649"/>
      <point x="74" y="494"/>
      <point x="76" y="492" type="curve" smooth="yes"/>
      <point x="81" y="487"/>
      <point x="88" y="489"/>
      <point x="101" y="489" type="curve" smooth="yes"/>
      <point x="114" y="489"/>
      <point x="119" y="489"/>
      <point x="125" y="492" type="curve" smooth="yes"/>
      <point x="129" y="494"/>
      <point x="142" y="531"/>
      <point x="148" y="542" type="curve"/>
      <point x="151" y="550"/>
      <point x="157" y="554"/>
      <point x="164" y="554" type="curve"/>
      <point x="339" y="554" type="line"/>
      <point x="347" y="554"/>
      <point x="354" y="545"/>
      <point x="349" y="540" type="curve"/>
      <point x="141" y="375" type="line"/>
      <point x="137" y="371"/>
      <point x="133" y="363"/>
      <point x="137" y="357" type="curve"/>
      <point x="181" y="290" type="line"/>
      <point x="186" y="281"/>
      <point x="193" y="278"/>
      <point x="201" y="283" type="curve" smooth="yes"/>
      <point x="219" y="294"/>
      <point x="235" y="311"/>
      <point x="293" y="311" type="curve"/>
      <point x="353" y="311"/>
      <point x="396" y="267"/>
      <point x="396" y="209" type="curve"/>
      <point x="396" y="156"/>
      <point x="349" y="85"/>
      <point x="254" y="85" type="curve"/>
      <point x="154" y="85"/>
      <point x="118" y="158"/>
      <point x="112" y="187" type="curve" smooth="yes"/>
      <point x="110" y="195"/>
      <point x="84" y="172"/>
      <point x="77" y="165" type="curve"/>
      <point x="67" y="155"/>
      <point x="63" y="138"/>
      <point x="63" y="129" type="curve"/>
      <point x="63" y="80"/>
      <point x="132" y="-12"/>
    </contour>
  </outline>
</glyph>
<glyph name="four" format="1">
  <advance width="598"/>
  <unicode hex="0034"/>
  <outline>
    <contour>
      <point x="357" y="576" type="line"/>
      <point x="351" y="92" type="line" smooth="yes"/>
      <point x="351" y="81"/>
      <point x="345" y="77"/>
      <point x="338" y="74" type="curve" smooth="yes"/>
      <point x="324" y="67"/>
      <point x="283" y="53"/>
      <point x="281" y="49" type="curve" smooth="yes"/>
      <point x="278" y="43"/>
      <point x="278" y="38"/>
      <point x="278" y="25" type="curve" smooth="yes"/>
      <point x="278" y="12"/>
      <point x="279" y="6"/>
      <point x="281" y="0" type="curve"/>
      <point x="520" y="0" type="line"/>
      <point x="522" y="6"/>
      <point x="523" y="12"/>
      <point x="523" y="25" type="curve" smooth="yes"/>
      <point x="523" y="38"/>
      <point x="523" y="43"/>
      <point x="520" y="49" type="curve" smooth="yes"/>
      <point x="518" y="53"/>
      <point x="473" y="68"/>
      <point x="462" y="74" type="curve"/>
      <point x="453" y="77"/>
      <point x="450" y="84"/>
      <point x="450" y="95" type="curve"/>
      <point x="456" y="660" type="line"/>
      <point x="364" y="660" type="line"/>
      <point x="37" y="283" type="line"/>
      <point x="34" y="280"/>
      <point x="34" y="276"/>
      <point x="35" y="273" type="curve"/>
      <point x="57" y="188" type="line"/>
      <point x="58" y="182"/>
      <point x="61" y="178"/>
      <point x="65" y="178" type="curve"/>
      <point x="514" y="178" type="line"/>
      <point x="525" y="178"/>
      <point x="532" y="187"/>
      <point x="535" y="197" type="curve"/>
      <point x="568" y="308" type="line"/>
      <point x="568" y="316"/>
      <point x="555" y="320"/>
      <point x="541" y="320" type="curve" smooth="yes"/>
      <point x="521" y="320"/>
      <point x="513" y="315"/>
      <point x="513" y="308" type="curve"/>
      <point x="504" y="268"/>
      <point x="478" y="266"/>
      <point x="432" y="266" type="curve"/>
      <point x="132" y="266" type="line"/>
      <point x="135" y="253" type="line"/>
      <point x="384" y="562" type="line"/>
    </contour>
  </outline>
</glyph>
<glyph name="five" format="1">
  <advance width="550"/>
  <unicode hex="0035"/>
  <outline>
    <contour>
      <point x="141" y="297" type="curve"/>
      <point x="169" y="326"/>
      <point x="212" y="354"/>
      <point x="272" y="354" type="curve"/>
      <point x="366" y="354"/>
      <point x="401" y="293"/>
      <point x="401" y="227" type="curve"/>
      <point x="401" y="161"/>
      <point x="357" y="85"/>
      <point x="269" y="85" type="curve" smooth="yes"/>
      <point x="170" y="85"/>
      <point x="112" y="142"/>
      <point x="112" y="202" type="curve"/>
      <point x="112" y="206"/>
      <point x="99" y="208"/>
      <point x="88" y="208" type="curve" smooth="yes"/>
      <point x="77" y="208"/>
      <point x="63" y="206"/>
      <point x="63" y="202" type="curve"/>
      <point x="63" y="92" type="line"/>
      <point x="63" y="81"/>
      <point x="134" y="-12"/>
      <point x="268" y="-12" type="curve"/>
      <point x="412" y="-12"/>
      <point x="510" y="92"/>
      <point x="510" y="230" type="curve"/>
      <point x="510" y="336"/>
      <point x="434" y="445"/>
      <point x="299" y="445" type="curve" smooth="yes"/>
      <point x="203" y="445"/>
      <point x="133" y="406"/>
      <point x="133" y="379" type="curve"/>
      <point x="152" y="370" type="line"/>
      <point x="152" y="474"/>
      <point x="153" y="501"/>
      <point x="153" y="582" type="curve"/>
      <point x="125" y="549" type="line"/>
      <point x="351" y="549" type="line"/>
      <point x="397" y="549"/>
      <point x="437" y="537"/>
      <point x="437" y="509" type="curve"/>
      <point x="437" y="504"/>
      <point x="453" y="502"/>
      <point x="463" y="502" type="curve"/>
      <point x="475" y="502"/>
      <point x="493" y="504"/>
      <point x="492" y="509" type="curve"/>
      <point x="460" y="649" type="line"/>
      <point x="65" y="649" type="line"/>
      <point x="65" y="490"/>
      <point x="64" y="410"/>
      <point x="64" y="352" type="curve"/>
      <point x="64" y="344"/>
      <point x="65" y="342"/>
      <point x="69" y="338" type="curve"/>
      <point x="127" y="299" type="line"/>
      <point x="132" y="295"/>
      <point x="138" y="294"/>
    </contour>
  </outline>
</glyph>
<glyph name="eight" format="1">
  <advance width="581"/>
  <unicode hex="0038"/>
  <outline>
    <contour>
      <point x="286" y="-13" type="curve" smooth="yes"/>
      <point x="450" y="-13"/>
      <point x="544" y="87"/>
      <point x="544" y="201" type="curve" smooth="yes"/>
      <point x="544" y="294"/>
      <point x="461" y="373"/>
      <point x="386" y="373" type="curve"/>
      <point x="387" y="356" type="line"/>
      <point x="462" y="356"/>
      <point x="516" y="412"/>
      <point x="516" y="503" type="curve"/>
      <point x="516" y="582"/>
      <point x="439" y="666"/>
      <point x="293" y="666" type="curve"/>
      <point x="135" y="666"/>
      <point x="66" y="584"/>
      <point x="66" y="503" type="curve"/>
      <point x="66" y="417"/>
      <point x="119" y="357"/>
      <point x="194" y="357" type="curve"/>
      <point x="195" y="377" type="line"/>
      <point x="119" y="377"/>
      <point x="37" y="296"/>
      <point x="37" y="201" type="curve" smooth="yes"/>
      <point x="37" y="87"/>
      <point x="130" y="-13"/>
    </contour>
    <contour>
      <point x="212" y="402"/>
      <point x="168" y="442"/>
      <point x="168" y="497" type="curve" smooth="yes"/>
      <point x="168" y="554"/>
      <point x="213" y="587"/>
      <point x="291" y="587" type="curve"/>
      <point x="366" y="587"/>
      <point x="417" y="556"/>
      <point x="417" y="497" type="curve" smooth="yes"/>
      <point x="417" y="443"/>
      <point x="364" y="402"/>
      <point x="289" y="402" type="curve" smooth="yes"/>
    </contour>
    <contour>
      <point x="287" y="324" type="curve" smooth="yes"/>
      <point x="376" y="324"/>
      <point x="436" y="270"/>
      <point x="436" y="201" type="curve" smooth="yes"/>
      <point x="436" y="129"/>
      <point x="380" y="73"/>
      <point x="286" y="73" type="curve" smooth="yes"/>
      <point x="199" y="73"/>
      <point x="139" y="130"/>
      <point x="139" y="201" type="curve" smooth="yes"/>
      <point x="139" y="268"/>
      <point x="196" y="324"/>
    </contour>
  </outline>
</glyph>
<glyph name="colon" format="1">
  <advance width="364"/>
  <unicode hex="003A"/>
  <outline>
    <contour>
      <point x="185" y="84" type="curve"/>
      <point x="242" y="84"/>
      <point x="262" y="101"/>
      <point x="262" y="163" type="curve" smooth="yes"/>
      <point x="262" y="224"/>
      <point x="242" y="240"/>
      <point x="183" y="240" type="curve" smooth="yes"/>
      <point x="126" y="240"/>
      <point x="105" y="224"/>
      <point x="105" y="163" type="curve" smooth="yes"/>
      <point x="105" y="101"/>
      <point x="126" y="84"/>
    </contour>
    <contour>
      <point x="185" y="354" type="curve"/>
      <point x="242" y="354"/>
      <point x="262" y="371"/>
      <point x="262" y="433" type="curve" smooth="yes"/>
      <point x="262" y="494"/>
      <point x="242" y="510"/>
      <point x="183" y="510" type="curve" smooth="yes"/>
      <point x="126" y="510"/>
      <point x="105" y="494"/>
      <point x="105" y="433" type="curve" smooth="yes"/>
      <point x="105" y="371"/>
      <point x="126" y="354"/>
    </contour>
  </outline>
</glyph>
<glyph name="C" format="1">
  <advance width="705"/>
  <unicode hex="0043"/>
  <outline>
    <contour>
      <point x="580" y="590" type="curve"/>
      <point x="550" y="615"/>
      <point x="517" y="624"/>
      <point x="457" y="624" type="curve" smooth="yes"/>
      <point x="304" y="624"/>
      <point x="159" y="538"/>
      <point x="159" y="334" type="curve"/>
      <point x="159" y="201"/>
      <point x="278" y="78"/>
      <point x="424" y="78" type="curve"/>
      <point x="513" y="78"/>
      <point x="598" y="108"/>
      <point x="624" y="133" type="curve"/>
      <point x="667" y="74" type="line"/>
      <point x="640" y="44"/>
      <point x="570" y="-18"/>
      <point x="424" y="-18" type="curve"/>
      <point x="216" y="-18"/>
      <point x="50" y="119"/>
      <point x="50" y="340" type="curve"/>
      <point x="50" y="590"/>
      <point x="249" y="720"/>
      <point x="441" y="720" type="curve" smooth="yes"/>
      <point x="532" y="720"/>
      <point x="589" y="707"/>
      <point x="657" y="665" type="curve"/>
      <point x="662" y="665"/>
      <point x="657" y="492"/>
      <point x="654" y="491" type="curve" smooth="yes"/>
      <point x="648" y="488"/>
      <point x="642" y="488"/>
      <point x="629" y="488" type="curve" smooth="yes"/>
      <point x="616" y="488"/>
      <point x="611" y="488"/>
      <point x="605" y="491" type="curve" smooth="yes"/>
      <point x="601" y="493"/>
      <point x="586" y="579"/>
    </contour>
  </outline>
</glyph>
<glyph name="D" format="1">
  <advance width="767"/>
  <unicode hex="0044"/>
  <outline>
    <contour>
      <point x="355" y="-10" type="curve" smooth="yes"/>
      <point x="522" y="-10"/>
      <point x="724" y="112"/>
      <point x="724" y="362" type="curve"/>
      <point x="724" y="583"/>
      <point x="559" y="712"/>
      <point x="355" y="712" type="curve"/>
      <point x="251" y="712"/>
      <point x="78" y="700"/>
      <point x="40" y="700" type="curve"/>
      <point x="38" y="694"/>
      <point x="37" y="688"/>
      <point x="37" y="675" type="curve" smooth="yes"/>
      <point x="37" y="662"/>
      <point x="37" y="657"/>
      <point x="40" y="651" type="curve" smooth="yes"/>
      <point x="42" y="647"/>
      <point x="84" y="632"/>
      <point x="99" y="623" type="curve"/>
      <point x="106" y="620"/>
      <point x="110" y="614"/>
      <point x="110" y="607" type="curve"/>
      <point x="110" y="92" type="line" smooth="yes"/>
      <point x="110" y="81"/>
      <point x="104" y="77"/>
      <point x="97" y="74" type="curve" smooth="yes"/>
      <point x="83" y="67"/>
      <point x="42" y="53"/>
      <point x="40" y="49" type="curve" smooth="yes"/>
      <point x="37" y="43"/>
      <point x="37" y="38"/>
      <point x="37" y="25" type="curve" smooth="yes"/>
      <point x="37" y="12"/>
      <point x="38" y="6"/>
      <point x="40" y="0" type="curve"/>
      <point x="232" y="0"/>
      <point x="281" y="-10"/>
    </contour>
    <contour>
      <point x="229" y="79" type="curve"/>
      <point x="220" y="82"/>
      <point x="217" y="89"/>
      <point x="217" y="100" type="curve" smooth="yes"/>
      <point x="217" y="608" type="line"/>
      <point x="217" y="620"/>
      <point x="268" y="626"/>
      <point x="355" y="626" type="curve"/>
      <point x="513" y="626"/>
      <point x="606" y="525"/>
      <point x="606" y="368" type="curve"/>
      <point x="606" y="164"/>
      <point x="470" y="73"/>
      <point x="342" y="73" type="curve" smooth="yes"/>
      <point x="294" y="73"/>
      <point x="242" y="72"/>
    </contour>
  </outline>
</glyph>
<glyph name="J" format="1">
  <advance width="340"/>
  <unicode hex="004A"/>
  <outline>
    <contour>
      <point x="118" y="607" type="curve"/>
      <point x="118" y="477"/>
      <point x="118" y="164"/>
      <point x="118" y="92" type="curve"/>
      <point x="118" y="-29"/>
      <point x="25" y="-84"/>
      <point x="-53" y="-84" type="curve"/>
      <point x="-53" y="-154" type="line"/>
      <point x="75" y="-154"/>
      <point x="223" y="-71"/>
      <point x="223" y="100" type="curve"/>
      <point x="223" y="176"/>
      <point x="223" y="474"/>
      <point x="223" y="607" type="curve"/>
      <point x="223" y="614"/>
      <point x="227" y="620"/>
      <point x="234" y="623" type="curve"/>
      <point x="249" y="632"/>
      <point x="301" y="647"/>
      <point x="303" y="651" type="curve" smooth="yes"/>
      <point x="306" y="657"/>
      <point x="306" y="662"/>
      <point x="306" y="675" type="curve" smooth="yes"/>
      <point x="306" y="688"/>
      <point x="305" y="694"/>
      <point x="303" y="700" type="curve"/>
      <point x="38" y="700" type="line"/>
      <point x="36" y="694"/>
      <point x="35" y="688"/>
      <point x="35" y="675" type="curve" smooth="yes"/>
      <point x="35" y="662"/>
      <point x="35" y="657"/>
      <point x="38" y="651" type="curve" smooth="yes"/>
      <point x="40" y="647"/>
      <point x="95" y="629"/>
      <point x="106" y="623" type="curve"/>
      <point x="114" y="620"/>
      <point x="118" y="614"/>
    </contour>
  </outline>
</glyph>
<glyph name="K" format="1">
  <advance width="681"/>
  <unicode hex="004B"/>
  <outline>
    <contour>
      <point x="299" y="0" type="line"/>
      <point x="301" y="6"/>
      <point x="302" y="12"/>
      <point x="302" y="25" type="curve" smooth="yes"/>
      <point x="302" y="38"/>
      <point x="302" y="43"/>
      <point x="299" y="49" type="curve" smooth="yes"/>
      <point x="297" y="53"/>
      <point x="252" y="68"/>
      <point x="241" y="74" type="curve"/>
      <point x="232" y="77"/>
      <point x="229" y="84"/>
      <point x="229" y="95" type="curve" smooth="yes"/>
      <point x="229" y="607" type="line"/>
      <point x="229" y="614"/>
      <point x="233" y="620"/>
      <point x="241" y="623" type="curve"/>
      <point x="252" y="629"/>
      <point x="295" y="647"/>
      <point x="297" y="651" type="curve" smooth="yes"/>
      <point x="300" y="657"/>
      <point x="300" y="662"/>
      <point x="300" y="675" type="curve" smooth="yes"/>
      <point x="300" y="688"/>
      <point x="299" y="694"/>
      <point x="297" y="700" type="curve"/>
      <point x="52" y="700" type="line"/>
      <point x="50" y="694"/>
      <point x="49" y="688"/>
      <point x="49" y="675" type="curve" smooth="yes"/>
      <point x="49" y="662"/>
      <point x="49" y="657"/>
      <point x="52" y="651" type="curve" smooth="yes"/>
      <point x="54" y="647"/>
      <point x="96" y="632"/>
      <point x="111" y="623" type="curve"/>
      <point x="118" y="620"/>
      <point x="122" y="614"/>
      <point x="122" y="607" type="curve"/>
      <point x="122" y="92" type="line" smooth="yes"/>
      <point x="122" y="81"/>
      <point x="116" y="77"/>
      <point x="109" y="74" type="curve" smooth="yes"/>
      <point x="95" y="67"/>
      <point x="54" y="53"/>
      <point x="52" y="49" type="curve" smooth="yes"/>
      <point x="49" y="43"/>
      <point x="49" y="38"/>
      <point x="49" y="25" type="curve" smooth="yes"/>
      <point x="49" y="12"/>
      <point x="50" y="6"/>
      <point x="52" y="0" type="curve"/>
    </contour>
    <contour>
      <point x="671" y="0" type="line"/>
      <point x="673" y="6"/>
      <point x="674" y="12"/>
      <point x="674" y="25" type="curve" smooth="yes"/>
      <point x="674" y="38"/>
      <point x="674" y="43"/>
      <point x="671" y="49" type="curve" smooth="yes"/>
      <point x="669" y="53"/>
      <point x="624" y="68"/>
      <point x="613" y="74" type="curve"/>
      <point x="604" y="77"/>
      <point x="599" y="83"/>
      <point x="593" y="92" type="curve"/>
      <point x="385" y="425" type="line"/>
      <point x="313" y="357" type="line"/>
      <point x="513" y="9" type="line"/>
      <point x="516" y="4"/>
      <point x="520" y="1"/>
      <point x="525" y="0" type="curve"/>
    </contour>
    <contour>
      <point x="217" y="203" type="line"/>
      <point x="307" y="298"/>
      <point x="535" y="581"/>
      <point x="547" y="593" type="curve" smooth="yes"/>
      <point x="594" y="640"/>
      <point x="632" y="636"/>
      <point x="635" y="643" type="curve" smooth="yes"/>
      <point x="638" y="649"/>
      <point x="638" y="660"/>
      <point x="638" y="673" type="curve" smooth="yes"/>
      <point x="638" y="686"/>
      <point x="637" y="694"/>
      <point x="635" y="700" type="curve"/>
      <point x="409" y="700" type="line"/>
      <point x="407" y="694"/>
      <point x="406" y="688"/>
      <point x="406" y="675" type="curve" smooth="yes"/>
      <point x="406" y="662"/>
      <point x="406" y="657"/>
      <point x="409" y="651" type="curve" smooth="yes"/>
      <point x="411" y="647"/>
      <point x="429" y="640"/>
      <point x="444" y="631" type="curve"/>
      <point x="451" y="628"/>
      <point x="455" y="623"/>
      <point x="455" y="616" type="curve"/>
      <point x="455" y="610"/>
      <point x="263" y="375"/>
      <point x="193" y="304" type="curve"/>
    </contour>
  </outline>
</glyph>
<glyph name="L" format="1">
  <advance width="557"/>
  <unicode hex="004C"/>
  <outline>
    <contour>
      <point x="224" y="607" type="line"/>
      <point x="224" y="614"/>
      <point x="228" y="620"/>
      <point x="236" y="623" type="curve"/>
      <point x="247" y="629"/>
      <point x="290" y="647"/>
      <point x="292" y="651" type="curve" smooth="yes"/>
      <point x="295" y="657"/>
      <point x="295" y="662"/>
      <point x="295" y="675" type="curve" smooth="yes"/>
      <point x="295" y="688"/>
      <point x="294" y="694"/>
      <point x="292" y="700" type="curve"/>
      <point x="47" y="700" type="line"/>
      <point x="45" y="694"/>
      <point x="44" y="688"/>
      <point x="44" y="675" type="curve" smooth="yes"/>
      <point x="44" y="662"/>
      <point x="44" y="657"/>
      <point x="47" y="651" type="curve" smooth="yes"/>
      <point x="49" y="647"/>
      <point x="91" y="632"/>
      <point x="106" y="623" type="curve"/>
      <point x="113" y="620"/>
      <point x="117" y="614"/>
      <point x="117" y="607" type="curve"/>
      <point x="117" y="92" type="line"/>
      <point x="117" y="81"/>
      <point x="111" y="77"/>
      <point x="104" y="74" type="curve" smooth="yes"/>
      <point x="90" y="67"/>
      <point x="49" y="53"/>
      <point x="47" y="49" type="curve" smooth="yes"/>
      <point x="44" y="43"/>
      <point x="44" y="38"/>
      <point x="44" y="25" type="curve" smooth="yes"/>
      <point x="44" y="12"/>
      <point x="45" y="6"/>
      <point x="47" y="0" type="curve"/>
      <point x="156" y="0"/>
      <point x="506" y="0"/>
      <point x="509" y="0" type="curve" smooth="yes"/>
      <point x="515" y="0"/>
      <point x="525" y="155"/>
      <point x="523" y="157" type="curve" smooth="yes"/>
      <point x="518" y="162"/>
      <point x="511" y="160"/>
      <point x="498" y="160" type="curve" smooth="yes"/>
      <point x="485" y="160"/>
      <point x="480" y="160"/>
      <point x="474" y="157" type="curve" smooth="yes"/>
      <point x="470" y="155"/>
      <point x="452" y="107"/>
      <point x="446" y="96" type="curve"/>
      <point x="443" y="88"/>
      <point x="437" y="84"/>
      <point x="430" y="84" type="curve"/>
      <point x="236" y="84" type="line"/>
      <point x="228" y="87"/>
      <point x="222" y="93"/>
      <point x="222" y="100" type="curve"/>
    </contour>
  </outline>
</glyph>
<glyph name="O" format="1">
  <advance width="795"/>
  <unicode hex="004F"/>
  <outline>
    <contour>
      <point x="576" y="-18"/>
      <point x="742" y="99"/>
      <point x="742" y="346" type="curve" smooth="yes"/>
      <point x="742" y="613"/>
      <point x="563" y="713"/>
      <point x="390" y="713" type="curve"/>
      <point x="225" y="713"/>
      <point x="54" y="584"/>
      <point x="54" y="357" type="curve" smooth="yes"/>
      <point x="54" y="91"/>
      <point x="245" y="-18"/>
      <point x="399" y="-18" type="curve"/>
    </contour>
    <contour>
      <point x="163" y="356" type="curve" smooth="yes"/>
      <point x="163" y="529"/>
      <point x="282" y="617"/>
      <point x="392" y="617" type="curve"/>
      <point x="502" y="617"/>
      <point x="635" y="541"/>
      <point x="635" y="346" type="curve" smooth="yes"/>
      <point x="635" y="167"/>
      <point x="515" y="78"/>
      <point x="399" y="78" type="curve"/>
      <point x="303" y="78"/>
      <point x="163" y="161"/>
    </contour>
  </outline>
</glyph>
<glyph name="Q" format="1">
  <advance width="794"/>
  <unicode hex="0051"/>
  <outline>
    <contour>
      <point x="570" y="-14"/>
      <point x="741" y="99"/>
      <point x="741" y="346" type="curve" smooth="yes"/>
      <point x="741" y="613"/>
      <point x="562" y="713"/>
      <point x="389" y="713" type="curve"/>
      <point x="224" y="713"/>
      <point x="53" y="584"/>
      <point x="53" y="357" type="curve" smooth="yes"/>
      <point x="53" y="91"/>
      <point x="244" y="-14"/>
      <point x="398" y="-14" type="curve"/>
    </contour>
    <contour>
      <point x="160" y="356" type="curve" smooth="yes"/>
      <point x="160" y="529"/>
      <point x="281" y="620"/>
      <point x="391" y="620" type="curve"/>
      <point x="501" y="620"/>
      <point x="636" y="541"/>
      <point x="636" y="346" type="curve" smooth="yes"/>
      <point x="636" y="167"/>
      <point x="515" y="75"/>
      <point x="399" y="75" type="curve"/>
      <point x="298" y="75"/>
      <point x="160" y="161"/>
    </contour>
    <contour>
      <point x="896" y="-66" type="curve"/>
      <point x="774" y="-62"/>
      <point x="542" y="-21"/>
      <point x="497" y="17" type="curve"/>
      <point x="317" y="7" type="line"/>
      <point x="292" y="3" type="line"/>
      <point x="316" y="-4"/>
      <point x="630" y="-121"/>
      <point x="729" y="-152" type="curve"/>
      <point x="740" y="-154"/>
      <point x="750" y="-154"/>
      <point x="761" y="-152" type="curve"/>
      <point x="895" y="-116" type="line"/>
      <point x="899" y="-113"/>
      <point x="903" y="-106"/>
      <point x="903" y="-94" type="curve"/>
      <point x="903" y="-81"/>
      <point x="904" y="-67"/>
    </contour>
  </outline>
</glyph>
<glyph name="T" format="1">
  <advance width="598.0"/>
  <unicode hex="0054"/>
  <outline>
    <contour>
      <point x="421" y="25" type="curve" smooth="yes"/>
      <point x="421" y="38"/>
      <point x="421" y="43"/>
      <point x="418" y="49" type="curve" smooth="yes"/>
      <point x="416" y="53"/>
      <point x="373" y="71"/>
      <point x="362" y="77" type="curve"/>
      <point x="354" y="80"/>
      <point x="350" y="86"/>
      <point x="350" y="93" type="curve"/>
      <point x="350" y="596" type="line"/>
      <point x="350" y="603"/>
      <point x="356" y="609"/>
      <point x="364" y="612" type="curve"/>
      <point x="486" y="612" type="line"/>
      <point x="491" y="612"/>
      <point x="496" y="608"/>
      <point x="498" y="600" type="curve"/>
      <point x="502" y="588"/>
      <point x="516" y="538"/>
      <point x="519" y="536" type="curve" smooth="yes"/>
      <point x="524" y="533"/>
      <point x="537" y="533"/>
      <point x="547" y="533" type="curve" smooth="yes"/>
      <point x="557" y="533"/>
      <point x="563" y="531"/>
      <point x="566" y="536" type="curve" smooth="yes"/>
      <point x="568" y="538"/>
      <point x="560" y="702"/>
      <point x="556" y="702" type="curve" smooth="yes"/>
      <point x="39" y="702" type="line" smooth="yes"/>
      <point x="34" y="702"/>
      <point x="27" y="538"/>
      <point x="28" y="536" type="curve" smooth="yes"/>
      <point x="32" y="531"/>
      <point x="37" y="533"/>
      <point x="47" y="533" type="curve" smooth="yes"/>
      <point x="57" y="533"/>
      <point x="71" y="533"/>
      <point x="76" y="536" type="curve" smooth="yes"/>
      <point x="79" y="538"/>
      <point x="92" y="588"/>
      <point x="97" y="600" type="curve"/>
      <point x="99" y="608"/>
      <point x="104" y="612"/>
      <point x="109" y="612" type="curve"/>
      <point x="227" y="612" type="line"/>
      <point x="235" y="609"/>
      <point x="241" y="603"/>
      <point x="241" y="596" type="curve"/>
      <point x="241" y="93" type="line"/>
      <point x="241" y="86"/>
      <point x="237" y="80"/>
      <point x="229" y="77" type="curve"/>
      <point x="219" y="71"/>
      <point x="179" y="55"/>
      <point x="174" y="50" type="curve"/>
      <point x="173" y="49"/>
      <point x="173" y="49"/>
      <point x="173" y="49" type="curve" smooth="yes"/>
      <point x="170" y="43"/>
      <point x="170" y="38"/>
      <point x="170" y="25" type="curve" smooth="yes"/>
      <point x="170" y="12"/>
      <point x="171" y="6"/>
      <point x="173" y="0" type="curve"/>
      <point x="418" y="0" type="line"/>
      <point x="420" y="6"/>
      <point x="421" y="12"/>
    </contour>
  </outline>
</glyph>
<glyph name="U" format="1">
  <advance width="737"/>
  <unicode hex="0055"/>
  <outline>
    <contour>
      <point x="529" y="607" type="line"/>
      <point x="529" y="614"/>
      <point x="525" y="620"/>
      <point x="517" y="623" type="curve"/>
      <point x="500" y="630"/>
      <point x="447" y="647"/>
      <point x="444" y="651" type="curve" smooth="yes"/>
      <point x="441" y="657"/>
      <point x="441" y="662"/>
      <point x="441" y="675" type="curve" smooth="yes"/>
      <point x="441" y="688"/>
      <point x="442" y="694"/>
      <point x="444" y="700" type="curve"/>
      <point x="716" y="700" type="line"/>
      <point x="718" y="694"/>
      <point x="719" y="688"/>
      <point x="719" y="675" type="curve" smooth="yes"/>
      <point x="719" y="662"/>
      <point x="719" y="657"/>
      <point x="716" y="651" type="curve" smooth="yes"/>
      <point x="713" y="647"/>
      <point x="664" y="629"/>
      <point x="651" y="623" type="curve"/>
      <point x="643" y="620"/>
      <point x="638" y="614"/>
      <point x="638" y="607" type="curve"/>
      <point x="638" y="360" type="line"/>
      <point x="638" y="126"/>
      <point x="578" y="-14"/>
      <point x="358" y="-14" type="curve" smooth="yes"/>
      <point x="143" y="-14"/>
      <point x="97" y="126"/>
      <point x="97" y="355" type="curve"/>
      <point x="97" y="607" type="line"/>
      <point x="97" y="614"/>
      <point x="92" y="620"/>
      <point x="85" y="623" type="curve"/>
      <point x="68" y="632"/>
      <point x="22" y="647"/>
      <point x="20" y="651" type="curve" smooth="yes"/>
      <point x="16" y="657"/>
      <point x="16" y="662"/>
      <point x="16" y="675" type="curve" smooth="yes"/>
      <point x="16" y="688"/>
      <point x="17" y="694"/>
      <point x="20" y="700" type="curve"/>
      <point x="291" y="700" type="line"/>
      <point x="293" y="694"/>
      <point x="294" y="688"/>
      <point x="294" y="675" type="curve" smooth="yes"/>
      <point x="294" y="662"/>
      <point x="294" y="657"/>
      <point x="291" y="651" type="curve" smooth="yes"/>
      <point x="289" y="647"/>
      <point x="233" y="629"/>
      <point x="219" y="623" type="curve"/>
      <point x="211" y="620"/>
      <point x="206" y="614"/>
      <point x="206" y="607" type="curve"/>
      <point x="206" y="350" type="line"/>
      <point x="206" y="197"/>
      <point x="225" y="80"/>
      <point x="360" y="80" type="curve"/>
      <point x="495" y="80"/>
      <point x="529" y="196"/>
      <point x="529" y="348" type="curve"/>
    </contour>
  </outline>
</glyph>
<glyph name="X" format="1">
  <advance width="742"/>
  <unicode hex="0058"/>
  <outline>
    <contour>
      <point x="291" y="24" type="curve" smooth="yes"/>
      <point x="291" y="34"/>
      <point x="288" y="48"/>
      <point x="285" y="50" type="curve" smooth="yes"/>
      <point x="281" y="52"/>
      <point x="241" y="71"/>
      <point x="231" y="77" type="curve" smooth="yes"/>
      <point x="229" y="78"/>
      <point x="228" y="86"/>
      <point x="231" y="91" type="curve" smooth="yes"/>
      <point x="236" y="101"/>
      <point x="347" y="257"/>
      <point x="388" y="310" type="curve"/>
      <point x="349" y="307" type="line"/>
      <point x="389" y="255"/>
      <point x="508" y="99"/>
      <point x="512" y="92" type="curve"/>
      <point x="514" y="87"/>
      <point x="513" y="79"/>
      <point x="511" y="77" type="curve"/>
      <point x="499" y="69"/>
      <point x="463" y="52"/>
      <point x="459" y="50" type="curve" smooth="yes"/>
      <point x="456" y="48"/>
      <point x="453" y="34"/>
      <point x="453" y="24" type="curve" smooth="yes"/>
      <point x="453" y="15"/>
      <point x="455" y="6"/>
      <point x="456" y="-1" type="curve"/>
      <point x="723" y="-1" type="line"/>
      <point x="724" y="5"/>
      <point x="725" y="14"/>
      <point x="725" y="23" type="curve" smooth="yes"/>
      <point x="725" y="33"/>
      <point x="725" y="44"/>
      <point x="723" y="50" type="curve" smooth="yes"/>
      <point x="722" y="54"/>
      <point x="665" y="73"/>
      <point x="660" y="77" type="curve" smooth="yes"/>
      <point x="656" y="80"/>
      <point x="650" y="86"/>
      <point x="644" y="93" type="curve" smooth="yes"/>
      <point x="639" y="98"/>
      <point x="472" y="317"/>
      <point x="416" y="394" type="curve"/>
      <point x="422" y="346" type="line"/>
      <point x="473" y="418"/>
      <point x="613" y="604"/>
      <point x="622" y="612" type="curve" smooth="yes"/>
      <point x="629" y="619"/>
      <point x="634" y="621"/>
      <point x="640" y="623" type="curve" smooth="yes"/>
      <point x="645" y="625"/>
      <point x="702" y="645"/>
      <point x="703" y="649" type="curve" smooth="yes"/>
      <point x="705" y="655"/>
      <point x="705" y="666"/>
      <point x="705" y="676" type="curve" smooth="yes"/>
      <point x="705" y="685"/>
      <point x="704" y="694"/>
      <point x="703" y="700" type="curve"/>
      <point x="449" y="700" type="line"/>
      <point x="448" y="693"/>
      <point x="446" y="684"/>
      <point x="446" y="675" type="curve" smooth="yes"/>
      <point x="446" y="665"/>
      <point x="449" y="651"/>
      <point x="452" y="649" type="curve" smooth="yes"/>
      <point x="456" y="647"/>
      <point x="492" y="630"/>
      <point x="504" y="622" type="curve"/>
      <point x="506" y="620"/>
      <point x="508" y="612"/>
      <point x="505" y="607" type="curve" smooth="yes"/>
      <point x="499" y="597"/>
      <point x="406" y="474"/>
      <point x="361" y="418" type="curve"/>
      <point x="391" y="418" type="line"/>
      <point x="356" y="465"/>
      <point x="253" y="601"/>
      <point x="249" y="607" type="curve" smooth="yes"/>
      <point x="243" y="616"/>
      <point x="244" y="621"/>
      <point x="246" y="622" type="curve" smooth="yes"/>
      <point x="256" y="628"/>
      <point x="294" y="647"/>
      <point x="298" y="649" type="curve" smooth="yes"/>
      <point x="301" y="651"/>
      <point x="304" y="665"/>
      <point x="304" y="675" type="curve" smooth="yes"/>
      <point x="304" y="684"/>
      <point x="302" y="693"/>
      <point x="301" y="700" type="curve"/>
      <point x="37" y="700" type="line"/>
      <point x="36" y="694"/>
      <point x="35" y="685"/>
      <point x="35" y="676" type="curve" smooth="yes"/>
      <point x="35" y="666"/>
      <point x="35" y="655"/>
      <point x="37" y="649" type="curve" smooth="yes"/>
      <point x="38" y="645"/>
      <point x="94" y="626"/>
      <point x="99" y="622" type="curve" smooth="yes"/>
      <point x="103" y="619"/>
      <point x="109" y="615"/>
      <point x="113" y="609" type="curve" smooth="yes"/>
      <point x="117" y="603"/>
      <point x="265" y="411"/>
      <point x="317" y="342" type="curve"/>
      <point x="318" y="379" type="line"/>
      <point x="265" y="306"/>
      <point x="113" y="101"/>
      <point x="103" y="91" type="curve" smooth="yes"/>
      <point x="97" y="85"/>
      <point x="94" y="80"/>
      <point x="90" y="77" type="curve" smooth="yes"/>
      <point x="85" y="73"/>
      <point x="22" y="54"/>
      <point x="21" y="50" type="curve" smooth="yes"/>
      <point x="19" y="44"/>
      <point x="19" y="33"/>
      <point x="19" y="23" type="curve" smooth="yes"/>
      <point x="19" y="14"/>
      <point x="20" y="5"/>
      <point x="21" y="-1" type="curve"/>
      <point x="288" y="-1" type="line"/>
      <point x="289" y="6"/>
      <point x="291" y="15"/>
    </contour>
  </outline>
</glyph>
<glyph name="Y" format="1">
  <advance width="651"/>
  <unicode hex="0059"/>
  <outline>
    <contour>
      <point x="374" y="271" type="line"/>
      <point x="580" y="620" type="line"/>
      <point x="580" y="620" type="line"/>
      <point x="582" y="625"/>
      <point x="584" y="628"/>
      <point x="588" y="631" type="curve" smooth="yes"/>
      <point x="591" y="634"/>
      <point x="635" y="647"/>
      <point x="636" y="651" type="curve" smooth="yes"/>
      <point x="637" y="654"/>
      <point x="639" y="669"/>
      <point x="639" y="676" type="curve" smooth="yes"/>
      <point x="639" y="683"/>
      <point x="636" y="695"/>
      <point x="636" y="700" type="curve"/>
      <point x="422" y="700" type="line"/>
      <point x="421" y="695"/>
      <point x="418" y="682"/>
      <point x="418" y="676" type="curve" smooth="yes"/>
      <point x="418" y="669"/>
      <point x="422" y="652"/>
      <point x="424" y="651" type="curve" smooth="yes"/>
      <point x="427" y="650"/>
      <point x="460" y="637"/>
      <point x="468" y="631" type="curve"/>
      <point x="469" y="629"/>
      <point x="470" y="623"/>
      <point x="469" y="620" type="curve"/>
      <point x="323" y="348" type="line"/>
      <point x="336" y="348" type="line"/>
      <point x="187" y="621" type="line"/>
      <point x="186" y="622"/>
      <point x="186" y="631"/>
      <point x="187" y="631" type="curve" smooth="yes"/>
      <point x="193" y="635"/>
      <point x="230" y="650"/>
      <point x="233" y="651" type="curve" smooth="yes"/>
      <point x="235" y="652"/>
      <point x="239" y="669"/>
      <point x="239" y="676" type="curve" smooth="yes"/>
      <point x="239" y="682"/>
      <point x="236" y="695"/>
      <point x="235" y="700" type="curve"/>
      <point x="14" y="700" type="line"/>
      <point x="13" y="695"/>
      <point x="11" y="683"/>
      <point x="11" y="676" type="curve" smooth="yes"/>
      <point x="11" y="669"/>
      <point x="13" y="654"/>
      <point x="14" y="651" type="curve" smooth="yes"/>
      <point x="15" y="647"/>
      <point x="59" y="634"/>
      <point x="62" y="631" type="curve" smooth="yes"/>
      <point x="65" y="628"/>
      <point x="68" y="625"/>
      <point x="70" y="620" type="curve"/>
      <point x="267" y="271" type="line"/>
      <point x="267" y="93" type="line"/>
      <point x="267" y="82"/>
      <point x="261" y="78"/>
      <point x="254" y="75" type="curve" smooth="yes"/>
      <point x="240" y="68"/>
      <point x="199" y="54"/>
      <point x="197" y="50" type="curve" smooth="yes"/>
      <point x="194" y="44"/>
      <point x="194" y="39"/>
      <point x="194" y="26" type="curve" smooth="yes"/>
      <point x="194" y="13"/>
      <point x="195" y="7"/>
      <point x="197" y="1" type="curve"/>
      <point x="444" y="1" type="line"/>
      <point x="446" y="7"/>
      <point x="447" y="13"/>
      <point x="447" y="26" type="curve" smooth="yes"/>
      <point x="447" y="39"/>
      <point x="447" y="44"/>
      <point x="444" y="50" type="curve" smooth="yes"/>
      <point x="442" y="54"/>
      <point x="397" y="69"/>
      <point x="386" y="75" type="curve"/>
      <point x="377" y="78"/>
      <point x="374" y="85"/>
      <point x="374" y="96" type="curve"/>
    </contour>
  </outline>
</glyph>
<glyph name="Z" format="1">
  <advance width="597.0"/>
  <unicode hex="005A"/>
  <outline>
    <contour>
      <point x="458" y="92" type="line"/>
      <point x="469" y="92"/>
      <point x="473" y="99"/>
      <point x="476" y="107" type="curve"/>
      <point x="483" y="124"/>
      <point x="508" y="189"/>
      <point x="512" y="191" type="curve" smooth="yes"/>
      <point x="518" y="195"/>
      <point x="523" y="195"/>
      <point x="536" y="195" type="curve" smooth="yes"/>
      <point x="549" y="195"/>
      <point x="555" y="193"/>
      <point x="561" y="191" type="curve"/>
      <point x="548" y="1" type="line"/>
      <point x="58" y="1" type="line"/>
      <point x="46" y="1"/>
      <point x="37" y="7"/>
      <point x="37" y="24" type="curve"/>
      <point x="37" y="40"/>
      <point x="36" y="84"/>
      <point x="41" y="92" type="curve"/>
      <point x="438" y="620" type="line"/>
      <point x="442" y="606" type="line"/>
      <point x="169" y="606" type="line"/>
      <point x="158" y="608"/>
      <point x="148" y="603"/>
      <point x="142" y="592" type="curve" smooth="yes"/>
      <point x="135" y="579"/>
      <point x="111" y="512"/>
      <point x="107" y="509" type="curve" smooth="yes"/>
      <point x="101" y="506"/>
      <point x="96" y="506"/>
      <point x="83" y="506" type="curve" smooth="yes"/>
      <point x="70" y="506"/>
      <point x="64" y="507"/>
      <point x="58" y="509" type="curve"/>
      <point x="71" y="683" type="line"/>
      <point x="73" y="692"/>
      <point x="77" y="697"/>
      <point x="85" y="700" type="curve"/>
      <point x="539" y="700" type="line"/>
      <point x="548" y="700"/>
      <point x="549" y="616"/>
      <point x="547" y="607" type="curve"/>
      <point x="159" y="70" type="line"/>
      <point x="156" y="92" type="line"/>
    </contour>
  </outline>
</glyph>
<glyph name="a" format="1">
  <advance width="711"/>
  <unicode hex="0061"/>
  <outline>
    <contour>
      <point x="168" y="413" type="line"/>
      <point x="198" y="443"/>
      <point x="236" y="486"/>
      <point x="340" y="486" type="curve"/>
      <point x="451" y="486"/>
      <point x="516" y="421"/>
      <point x="516" y="295" type="curve"/>
      <point x="516" y="166"/>
      <point x="448" y="63"/>
      <point x="325" y="63" type="curve"/>
      <point x="243" y="63"/>
      <point x="205" y="115"/>
      <point x="205" y="166" type="curve"/>
      <point x="205" y="265"/>
      <point x="493" y="269"/>
      <point x="568" y="269" type="curve"/>
      <point x="532" y="336" type="line"/>
      <point x="432" y="336"/>
      <point x="108" y="325"/>
      <point x="108" y="165" type="curve"/>
      <point x="108" y="74"/>
      <point x="184" y="-15"/>
      <point x="304" y="-15" type="curve"/>
      <point x="452" y="-15"/>
      <point x="528.0" y="85.0"/>
      <point x="528.0" y="132.0" type="curve"/>
      <point x="517.0" y="132.0" type="line"/>
      <point x="517" y="42"/>
      <point x="526" y="0"/>
      <point x="583.0" y="0.0" type="curve"/>
      <point x="669" y="0" type="line"/>
      <point x="669" y="49" type="line"/>
      <point x="643.0" y="49.0" type="line"/>
      <point x="616.0" y="49.0"/>
      <point x="600" y="63"/>
      <point x="600" y="100" type="curve"/>
      <point x="600" y="331" type="line"/>
      <point x="600" y="479"/>
      <point x="498" y="565"/>
      <point x="349" y="565" type="curve"/>
      <point x="251" y="565"/>
      <point x="187" y="519"/>
      <point x="137" y="472" type="curve"/>
    </contour>
  </outline>
</glyph>
<glyph name="b" format="1">
  <advance width="683"/>
  <unicode hex="0062"/>
  <outline>
    <contour>
      <point x="181" y="274" type="curve" smooth="yes"/>
      <point x="181" y="383"/>
      <point x="259" y="479"/>
      <point x="356" y="479" type="curve"/>
      <point x="458" y="479"/>
      <point x="535" y="408"/>
      <point x="535" y="278" type="curve"/>
      <point x="535" y="168"/>
      <point x="471" y="77"/>
      <point x="365" y="77" type="curve"/>
      <point x="257" y="77"/>
      <point x="181" y="149"/>
    </contour>
    <contour>
      <point x="187" y="723" type="line"/>
      <point x="186" y="742"/>
      <point x="175" y="750"/>
      <point x="157" y="750" type="curve"/>
      <point x="15" y="750" type="line"/>
      <point x="9" y="750"/>
      <point x="5" y="737"/>
      <point x="5" y="725" type="curve"/>
      <point x="5" y="714"/>
      <point x="10" y="699"/>
      <point x="15" y="699" type="curve"/>
      <point x="87" y="663" type="line"/>
      <point x="87" y="0" type="line"/>
      <point x="124" y="0" type="line"/>
      <point x="135" y="0"/>
      <point x="140" y="7"/>
      <point x="144" y="15" type="curve"/>
      <point x="197" y="97" type="line"/>
      <point x="179" y="95" type="line"/>
      <point x="179" y="49"/>
      <point x="286" y="-16"/>
      <point x="361" y="-16" type="curve"/>
      <point x="502" y="-16"/>
      <point x="637" y="92"/>
      <point x="637" y="286" type="curve"/>
      <point x="637" y="438"/>
      <point x="543" y="565"/>
      <point x="381" y="565" type="curve"/>
      <point x="267" y="565"/>
      <point x="174" y="479"/>
      <point x="174" y="435" type="curve"/>
      <point x="189" y="441" type="line"/>
    </contour>
  </outline>
</glyph>
<glyph name="c" format="1">
  <advance width="586"/>
  <unicode hex="0063"/>
  <outline>
    <contour>
      <point x="481" y="426"/>
      <point x="441" y="488"/>
      <point x="342" y="488" type="curve"/>
      <point x="240" y="488"/>
      <point x="146" y="419"/>
      <point x="146" y="268" type="curve"/>
      <point x="146" y="153"/>
      <point x="216" y="58"/>
      <point x="333" y="58" type="curve"/>
      <point x="435" y="58"/>
      <point x="492" y="113"/>
      <point x="515" y="135" type="curve"/>
      <point x="549" y="71" type="line"/>
      <point x="527" y="48"/>
      <point x="459" y="-14"/>
      <point x="329" y="-14" type="curve"/>
      <point x="172" y="-14"/>
      <point x="45" y="91"/>
      <point x="45" y="270" type="curve"/>
      <point x="45" y="458"/>
      <point x="183" y="564"/>
      <point x="332" y="564" type="curve"/>
      <point x="413" y="564"/>
      <point x="482" y="526"/>
      <point x="504" y="500" type="curve"/>
      <point x="443" y="488" type="line"/>
      <point x="472" y="488"/>
      <point x="476" y="557"/>
      <point x="476" y="564" type="curve"/>
      <point x="544" y="564" type="line"/>
      <point x="541" y="369" type="line"/>
      <point x="481" y="369" type="line"/>
    </contour>
  </outline>
</glyph>
<glyph name="d" format="1">
  <advance width="724"/>
  <unicode hex="0064"/>
  <outline>
    <contour>
      <point x="342" y="478" type="curve" smooth="yes"/>
      <point x="446" y="478"/>
      <point x="525" y="383"/>
      <point x="525" y="275" type="curve" smooth="yes"/>
      <point x="525" y="167"/>
      <point x="459" y="77"/>
      <point x="340" y="77" type="curve" smooth="yes"/>
      <point x="229" y="77"/>
      <point x="157" y="165"/>
      <point x="157" y="273" type="curve" smooth="yes"/>
      <point x="157" y="381"/>
      <point x="233" y="478"/>
    </contour>
    <contour>
      <point x="623" y="699" type="line"/>
      <point x="623" y="726"/>
      <point x="601" y="750"/>
      <point x="570" y="750" type="curve"/>
      <point x="460" y="750" type="line"/>
      <point x="460" y="699" type="line"/>
      <point x="505" y="699"/>
      <point x="526" y="679"/>
      <point x="526" y="641" type="curve"/>
      <point x="526" y="412" type="line"/>
      <point x="538" y="412" type="line"/>
      <point x="538" y="479"/>
      <point x="445" y="564"/>
      <point x="340" y="564" type="curve"/>
      <point x="168" y="564"/>
      <point x="61" y="435"/>
      <point x="61" y="274" type="curve" smooth="yes"/>
      <point x="61" y="114"/>
      <point x="170" y="-15"/>
      <point x="315" y="-15" type="curve"/>
      <point x="457" y="-15"/>
      <point x="536" y="85"/>
      <point x="536" y="132" type="curve"/>
      <point x="525" y="132" type="line"/>
      <point x="525" y="49"/>
      <point x="569" y="0"/>
      <point x="606" y="0" type="curve"/>
      <point x="699" y="0" type="line"/>
      <point x="699" y="49" type="line"/>
      <point x="639" y="49"/>
      <point x="622" y="77"/>
      <point x="623" y="125" type="curve"/>
    </contour>
  </outline>
</glyph>
<glyph name="e" format="1">
  <advance width="634"/>
  <unicode hex="0065"/>
  <outline>
    <contour>
      <point x="572" y="98" type="curve" smooth="yes"/>
      <point x="528" y="51"/>
      <point x="472" y="-14"/>
      <point x="332" y="-14" type="curve"/>
      <point x="162" y="-14"/>
      <point x="45" y="103"/>
      <point x="45" y="274" type="curve" smooth="yes"/>
      <point x="45" y="435"/>
      <point x="171" y="567"/>
      <point x="339" y="567" type="curve"/>
      <point x="474" y="567"/>
      <point x="589" y="453"/>
      <point x="589" y="304" type="curve"/>
      <point x="589" y="292"/>
      <point x="547" y="262"/>
      <point x="535" y="262" type="curve"/>
      <point x="114" y="262" type="line"/>
      <point x="115" y="339" type="line"/>
      <point x="513" y="339" type="line"/>
      <point x="498" y="312" type="line"/>
      <point x="498" y="382"/>
      <point x="435" y="482"/>
      <point x="334" y="482" type="curve" smooth="yes"/>
      <point x="220" y="482"/>
      <point x="149" y="382"/>
      <point x="149" y="274" type="curve" smooth="yes"/>
      <point x="149" y="144"/>
      <point x="243" y="68"/>
      <point x="335" y="68" type="curve"/>
      <point x="429" y="68"/>
      <point x="479" y="105"/>
      <point x="531" y="154" type="curve" smooth="yes"/>
      <point x="536" y="159"/>
      <point x="551" y="148"/>
      <point x="561" y="135" type="curve" smooth="yes"/>
      <point x="570" y="123"/>
      <point x="574" y="100"/>
    </contour>
  </outline>
</glyph>
<glyph name="f" format="1">
  <advance width="398"/>
  <unicode hex="0066"/>
  <outline>
    <contour>
      <point x="214" y="680"/>
      <point x="199" y="628"/>
      <point x="199" y="547" type="curve"/>
      <point x="199" y="475"/>
      <point x="199" y="223"/>
      <point x="199" y="93" type="curve"/>
      <point x="199" y="86"/>
      <point x="203" y="80"/>
      <point x="211" y="77" type="curve"/>
      <point x="222" y="71"/>
      <point x="295" y="53"/>
      <point x="297" y="49" type="curve" smooth="yes"/>
      <point x="300" y="43"/>
      <point x="300" y="38"/>
      <point x="300" y="25" type="curve" smooth="yes"/>
      <point x="300" y="12"/>
      <point x="299" y="6"/>
      <point x="297" y="0" type="curve"/>
      <point x="54" y="0" type="line"/>
      <point x="52" y="6"/>
      <point x="51" y="12"/>
      <point x="51" y="25" type="curve" smooth="yes"/>
      <point x="51" y="38"/>
      <point x="51" y="43"/>
      <point x="54" y="49" type="curve" smooth="yes"/>
      <point x="56" y="53"/>
      <point x="68" y="68"/>
      <point x="83" y="77" type="curve"/>
      <point x="90" y="80"/>
      <point x="94" y="86"/>
      <point x="94" y="93" type="curve"/>
      <point x="94" y="226"/>
      <point x="94" y="479"/>
      <point x="94" y="555" type="curve"/>
      <point x="94" y="660"/>
      <point x="134" y="766"/>
      <point x="290" y="766" type="curve"/>
      <point x="379" y="766"/>
      <point x="413" y="741"/>
      <point x="417" y="737" type="curve"/>
      <point x="442" y="616" type="line"/>
      <point x="439" y="613"/>
      <point x="425" y="612"/>
      <point x="417" y="612" type="curve"/>
      <point x="408" y="612"/>
      <point x="392" y="613"/>
      <point x="389" y="616" type="curve"/>
      <point x="373" y="657"/>
      <point x="354" y="680"/>
      <point x="295" y="680" type="curve"/>
    </contour>
    <contour>
      <point x="38" y="490" type="curve"/>
      <point x="347" y="490" type="line"/>
      <point x="352" y="490"/>
      <point x="360" y="472"/>
      <point x="360" y="452" type="curve" smooth="yes"/>
      <point x="360" y="436"/>
      <point x="357" y="417"/>
      <point x="353" y="417" type="curve"/>
      <point x="38" y="417" type="line"/>
      <point x="35" y="417"/>
      <point x="32" y="441"/>
      <point x="32" y="454" type="curve" smooth="yes"/>
      <point x="32" y="467"/>
      <point x="35" y="490"/>
    </contour>
  </outline>
</glyph>
<glyph name="g" format="1">
  <advance width="675"/>
  <unicode hex="0067"/>
  <outline>
    <contour>
      <point x="464" y="489" type="curve"/>
      <point x="513" y="437" type="line"/>
      <point x="537.0" y="446.25"/>
      <point x="595" y="471"/>
      <point x="609" y="474" type="curve" smooth="yes"/>
      <point x="624" y="477"/>
      <point x="644" y="474"/>
      <point x="656" y="474" type="curve"/>
      <point x="672" y="474"/>
      <point x="667" y="560"/>
      <point x="657" y="560" type="curve"/>
      <point x="641" y="560"/>
      <point x="591" y="561"/>
      <point x="577" y="554" type="curve" smooth="yes"/>
      <point x="549" y="540"/>
      <point x="495" y="511"/>
    </contour>
    <contour>
      <point x="332" y="484" type="curve" smooth="yes"/>
      <point x="438" y="484"/>
      <point x="498" y="391"/>
      <point x="498" y="294" type="curve" smooth="yes"/>
      <point x="498" y="186"/>
      <point x="433" y="115"/>
      <point x="332" y="115" type="curve"/>
      <point x="235" y="115"/>
      <point x="168" y="182"/>
      <point x="168" y="294" type="curve"/>
      <point x="168" y="397"/>
      <point x="237" y="484"/>
    </contour>
    <contour>
      <point x="358" y="-247" type="curve"/>
      <point x="452" y="-247"/>
      <point x="576" y="-190"/>
      <point x="576" y="-78" type="curve"/>
      <point x="576" y="19"/>
      <point x="463" y="59"/>
      <point x="394" y="59" type="curve"/>
      <point x="397" y="44" type="line"/>
      <point x="450" y="44"/>
      <point x="603" y="125"/>
      <point x="603" y="292" type="curve"/>
      <point x="603" y="430"/>
      <point x="503" y="561"/>
      <point x="331" y="561" type="curve" smooth="yes"/>
      <point x="155" y="561"/>
      <point x="57" y="440"/>
      <point x="57" y="278" type="curve" smooth="yes"/>
      <point x="57" y="129"/>
      <point x="162" y="49"/>
      <point x="303" y="28" type="curve" smooth="yes"/>
      <point x="432" y="9"/>
      <point x="471" y="-28"/>
      <point x="471" y="-75" type="curve"/>
      <point x="471" y="-128"/>
      <point x="421" y="-164"/>
      <point x="347" y="-164" type="curve"/>
      <point x="264" y="-164"/>
      <point x="203" y="-109"/>
      <point x="203" y="-70" type="curve"/>
      <point x="203" y="-60"/>
      <point x="180" y="-65"/>
      <point x="163" y="-74" type="curve" smooth="yes"/>
      <point x="150" y="-81"/>
      <point x="131" y="-92"/>
      <point x="131" y="-102" type="curve"/>
      <point x="131" y="-151"/>
      <point x="205" y="-247"/>
    </contour>
  </outline>
</glyph>
<glyph name="h" format="1">
  <advance width="720"/>
  <unicode hex="0068"/>
  <outline>
    <contour>
      <point x="108" y="92" type="line"/>
      <point x="108" y="83"/>
      <point x="104" y="79"/>
      <point x="98" y="74" type="curve" smooth="yes"/>
      <point x="90" y="68"/>
      <point x="54" y="52"/>
      <point x="51" y="49" type="curve" smooth="yes"/>
      <point x="49" y="42"/>
      <point x="49" y="37"/>
      <point x="48" y="25" type="curve" smooth="yes"/>
      <point x="49" y="11"/>
      <point x="50" y="5"/>
      <point x="51" y="0" type="curve"/>
      <point x="294" y="0" type="line"/>
      <point x="296" y="5"/>
      <point x="298" y="11"/>
      <point x="298" y="25" type="curve" smooth="yes"/>
      <point x="298" y="37"/>
      <point x="297" y="42"/>
      <point x="293" y="49" type="curve"/>
      <point x="292" y="52"/>
      <point x="237" y="68"/>
      <point x="224" y="74" type="curve" smooth="yes"/>
      <point x="216" y="77"/>
      <point x="213" y="82"/>
      <point x="212" y="90" type="curve"/>
      <point x="212" y="168"/>
      <point x="212" y="239"/>
      <point x="212" y="308" type="curve" smooth="yes"/>
      <point x="212" y="416"/>
      <point x="276" y="477"/>
      <point x="358" y="477" type="curve" smooth="yes"/>
      <point x="448" y="477"/>
      <point x="506" y="431"/>
      <point x="506" y="309" type="curve" smooth="yes"/>
      <point x="506" y="244"/>
      <point x="507" y="116"/>
      <point x="506" y="47" type="curve"/>
      <point x="506" y="16"/>
      <point x="519" y="0"/>
      <point x="541" y="0" type="curve"/>
      <point x="699" y="0" type="line"/>
      <point x="706" y="0"/>
      <point x="709" y="13"/>
      <point x="709" y="26" type="curve" smooth="yes"/>
      <point x="709" y="42"/>
      <point x="708" y="45"/>
      <point x="702" y="49" type="curve" smooth="yes"/>
      <point x="696" y="53"/>
      <point x="630" y="80"/>
      <point x="621" y="85" type="curve"/>
      <point x="615" y="91"/>
      <point x="610" y="96"/>
      <point x="610" y="101" type="curve" smooth="yes"/>
      <point x="610" y="163"/>
      <point x="610" y="280"/>
      <point x="610" y="332" type="curve" smooth="yes"/>
      <point x="610" y="464"/>
      <point x="547" y="565"/>
      <point x="383" y="565" type="curve"/>
      <point x="263" y="565"/>
      <point x="188" y="472"/>
      <point x="188" y="427" type="curve"/>
      <point x="209" y="429" type="line"/>
      <point x="209" y="723" type="line"/>
      <point x="208" y="742"/>
      <point x="197" y="750"/>
      <point x="179" y="750" type="curve"/>
      <point x="36" y="750" type="line"/>
      <point x="34" y="744"/>
      <point x="33" y="738"/>
      <point x="33" y="725" type="curve" smooth="yes"/>
      <point x="33" y="712"/>
      <point x="33" y="711"/>
      <point x="36" y="705" type="curve" smooth="yes"/>
      <point x="38" y="701"/>
      <point x="82" y="683"/>
      <point x="98" y="677" type="curve" smooth="yes"/>
      <point x="105" y="674"/>
      <point x="108" y="668"/>
      <point x="108" y="661" type="curve"/>
    </contour>
  </outline>
</glyph>
<glyph name="i" format="1">
  <advance width="336"/>
  <unicode hex="0069"/>
  <outline>
    <contour>
      <point x="153" y="623" type="curve" smooth="yes"/>
      <point x="198" y="623"/>
      <point x="218" y="636"/>
      <point x="218" y="684" type="curve" smooth="yes"/>
      <point x="218" y="731"/>
      <point x="198" y="743"/>
      <point x="153" y="743" type="curve" smooth="yes"/>
      <point x="110" y="743"/>
      <point x="91" y="731"/>
      <point x="91" y="684" type="curve" smooth="yes"/>
      <point x="91" y="636"/>
      <point x="110" y="623"/>
    </contour>
    <contour>
      <point x="213" y="95" type="line"/>
      <point x="214" y="83"/>
      <point x="217" y="76"/>
      <point x="225" y="74" type="curve"/>
      <point x="237" y="67"/>
      <point x="292" y="51"/>
      <point x="296" y="49" type="curve" smooth="yes"/>
      <point x="298" y="48"/>
      <point x="300" y="38"/>
      <point x="300" y="26" type="curve" smooth="yes"/>
      <point x="300" y="12"/>
      <point x="297" y="0"/>
      <point x="293" y="0" type="curve"/>
      <point x="74" y="0" type="line"/>
      <point x="72" y="0"/>
      <point x="70" y="11"/>
      <point x="70" y="25" type="curve" smooth="yes"/>
      <point x="70" y="37"/>
      <point x="72" y="45"/>
      <point x="74" y="49" type="curve" smooth="yes"/>
      <point x="76" y="53"/>
      <point x="95" y="68"/>
      <point x="103" y="74" type="curve" smooth="yes"/>
      <point x="109" y="79"/>
      <point x="111" y="82"/>
      <point x="111" y="91" type="curve"/>
      <point x="111" y="461" type="line"/>
      <point x="111" y="468"/>
      <point x="108" y="474"/>
      <point x="101" y="477" type="curve" smooth="yes"/>
      <point x="85" y="483"/>
      <point x="41" y="501"/>
      <point x="39" y="505" type="curve" smooth="yes"/>
      <point x="36" y="511"/>
      <point x="36" y="512"/>
      <point x="36" y="525" type="curve" smooth="yes"/>
      <point x="36" y="538"/>
      <point x="37" y="544"/>
      <point x="39" y="550" type="curve"/>
      <point x="183" y="550" type="line"/>
      <point x="201" y="550"/>
      <point x="212" y="542"/>
      <point x="213" y="523" type="curve"/>
    </contour>
  </outline>
</glyph>
<glyph name="j" format="1">
  <advance width="278"/>
  <unicode hex="006A"/>
  <outline>
    <contour>
      <point x="87" y="-130"/>
      <point x="102" y="-78"/>
      <point x="102" y="3" type="curve"/>
      <point x="102" y="75"/>
      <point x="102" y="327"/>
      <point x="102" y="457" type="curve"/>
      <point x="102" y="464"/>
      <point x="98" y="470"/>
      <point x="90" y="473" type="curve"/>
      <point x="79" y="479"/>
      <point x="34" y="497"/>
      <point x="32" y="501" type="curve" smooth="yes"/>
      <point x="29" y="507"/>
      <point x="29" y="512"/>
      <point x="29" y="525" type="curve" smooth="yes"/>
      <point x="29" y="538"/>
      <point x="30" y="544"/>
      <point x="32" y="550" type="curve"/>
      <point x="193" y="550" type="line"/>
      <point x="204" y="550"/>
      <point x="207" y="540"/>
      <point x="207" y="517" type="curve"/>
      <point x="207" y="335"/>
      <point x="207" y="71"/>
      <point x="207" y="-5" type="curve"/>
      <point x="207" y="-110"/>
      <point x="167" y="-216"/>
      <point x="11" y="-216" type="curve"/>
      <point x="-78" y="-216"/>
      <point x="-112" y="-191"/>
      <point x="-116" y="-187" type="curve"/>
      <point x="-141" y="-66" type="line"/>
      <point x="-138" y="-63"/>
      <point x="-124" y="-62"/>
      <point x="-116" y="-62" type="curve"/>
      <point x="-107" y="-62"/>
      <point x="-91" y="-63"/>
      <point x="-88" y="-66" type="curve"/>
      <point x="-72" y="-88"/>
      <point x="-53" y="-130"/>
      <point x="6" y="-130" type="curve"/>
    </contour>
    <contour>
      <point x="141" y="612" type="curve" smooth="yes"/>
      <point x="186" y="612"/>
      <point x="206" y="625"/>
      <point x="206" y="673" type="curve" smooth="yes"/>
      <point x="206" y="720"/>
      <point x="186" y="732"/>
      <point x="141" y="732" type="curve" smooth="yes"/>
      <point x="98" y="732"/>
      <point x="79" y="720"/>
      <point x="79" y="673" type="curve" smooth="yes"/>
      <point x="79" y="625"/>
      <point x="98" y="612"/>
    </contour>
  </outline>
</glyph>
<glyph name="k" format="1">
  <advance width="658"/>
  <unicode hex="006B"/>
  <outline>
    <contour>
      <point x="638" y="0" type="line"/>
      <point x="640" y="6"/>
      <point x="641" y="12"/>
      <point x="641" y="25" type="curve" smooth="yes"/>
      <point x="641" y="38"/>
      <point x="641" y="43"/>
      <point x="638" y="49" type="curve" smooth="yes"/>
      <point x="636" y="53"/>
      <point x="583" y="72"/>
      <point x="572" y="78" type="curve"/>
      <point x="563" y="81"/>
      <point x="558" y="87"/>
      <point x="552" y="96" type="curve"/>
      <point x="369" y="382" type="line"/>
      <point x="293" y="317" type="line"/>
      <point x="491" y="9" type="line"/>
      <point x="494" y="4"/>
      <point x="498" y="1"/>
      <point x="503" y="0" type="curve"/>
    </contour>
    <contour>
      <point x="193" y="174" type="line"/>
      <point x="279" y="232"/>
      <point x="494" y="469"/>
      <point x="506" y="481" type="curve" smooth="yes"/>
      <point x="538" y="513"/>
      <point x="572" y="499"/>
      <point x="575" y="506" type="curve" smooth="yes"/>
      <point x="578" y="512"/>
      <point x="578" y="523"/>
      <point x="578" y="536" type="curve" smooth="yes"/>
      <point x="578" y="549"/>
      <point x="577" y="557"/>
      <point x="575" y="563" type="curve"/>
      <point x="349" y="563" type="line"/>
      <point x="347" y="557"/>
      <point x="346" y="551"/>
      <point x="346" y="538" type="curve" smooth="yes"/>
      <point x="346" y="525"/>
      <point x="346" y="520"/>
      <point x="349" y="514" type="curve" smooth="yes"/>
      <point x="351" y="510"/>
      <point x="382" y="509"/>
      <point x="397" y="500" type="curve"/>
      <point x="404" y="497"/>
      <point x="408" y="492"/>
      <point x="408" y="485" type="curve"/>
      <point x="408" y="479"/>
      <point x="236" y="308"/>
      <point x="170" y="274" type="curve"/>
    </contour>
    <contour>
      <point x="216" y="723" type="line"/>
      <point x="215" y="742"/>
      <point x="204" y="750"/>
      <point x="186" y="750" type="curve"/>
      <point x="41" y="750" type="line"/>
      <point x="39" y="744"/>
      <point x="38" y="738"/>
      <point x="38" y="725" type="curve" smooth="yes"/>
      <point x="38" y="712"/>
      <point x="38" y="711"/>
      <point x="41" y="705" type="curve" smooth="yes"/>
      <point x="43" y="701"/>
      <point x="87" y="683"/>
      <point x="103" y="677" type="curve" smooth="yes"/>
      <point x="110" y="674"/>
      <point x="113" y="668"/>
      <point x="113" y="661" type="curve"/>
      <point x="113" y="92" type="line"/>
      <point x="113" y="83"/>
      <point x="109" y="79"/>
      <point x="103" y="74" type="curve" smooth="yes"/>
      <point x="95" y="68"/>
      <point x="59" y="52"/>
      <point x="56" y="49" type="curve" smooth="yes"/>
      <point x="54" y="42"/>
      <point x="54" y="37"/>
      <point x="53" y="25" type="curve" smooth="yes"/>
      <point x="54" y="11"/>
      <point x="55" y="5"/>
      <point x="56" y="0" type="curve"/>
      <point x="298" y="0" type="line"/>
      <point x="300" y="5"/>
      <point x="302" y="11"/>
      <point x="302" y="25" type="curve" smooth="yes"/>
      <point x="302" y="37"/>
      <point x="301" y="42"/>
      <point x="297" y="49" type="curve"/>
      <point x="296" y="52"/>
      <point x="241" y="68"/>
      <point x="228" y="74" type="curve" smooth="yes"/>
      <point x="220" y="77"/>
      <point x="217" y="82"/>
      <point x="216" y="90" type="curve"/>
    </contour>
  </outline>
</glyph>
<glyph name="l" format="1">
  <advance width="328"/>
  <unicode hex="006C"/>
  <outline>
    <contour>
      <point x="207" y="95" type="line"/>
      <point x="208" y="83"/>
      <point x="211" y="76"/>
      <point x="219" y="74" type="curve"/>
      <point x="231" y="67"/>
      <point x="286" y="51"/>
      <point x="290" y="49" type="curve" smooth="yes"/>
      <point x="292" y="48"/>
      <point x="294" y="38"/>
      <point x="294" y="26" type="curve" smooth="yes"/>
      <point x="294" y="12"/>
      <point x="291" y="0"/>
      <point x="287" y="0" type="curve"/>
      <point x="68" y="0" type="line"/>
      <point x="66" y="0"/>
      <point x="64" y="11"/>
      <point x="64" y="25" type="curve" smooth="yes"/>
      <point x="64" y="37"/>
      <point x="66" y="45"/>
      <point x="68" y="49" type="curve" smooth="yes"/>
      <point x="70" y="53"/>
      <point x="89" y="68"/>
      <point x="97" y="74" type="curve" smooth="yes"/>
      <point x="103" y="79"/>
      <point x="105" y="82"/>
      <point x="105" y="91" type="curve"/>
      <point x="105" y="663" type="line"/>
      <point x="105" y="670"/>
      <point x="102" y="676"/>
      <point x="95" y="679" type="curve" smooth="yes"/>
      <point x="79" y="685"/>
      <point x="46" y="703"/>
      <point x="44" y="707" type="curve" smooth="yes"/>
      <point x="41" y="713"/>
      <point x="41" y="714"/>
      <point x="41" y="727" type="curve" smooth="yes"/>
      <point x="41" y="740"/>
      <point x="42" y="746"/>
      <point x="44" y="752" type="curve"/>
      <point x="177" y="752" type="line"/>
      <point x="195" y="752"/>
      <point x="206" y="744"/>
      <point x="207" y="725" type="curve"/>
    </contour>
  </outline>
</glyph>
<glyph name="m" format="1">
  <advance width="1054"/>
  <unicode hex="006D"/>
  <outline>
    <contour>
      <point x="942" y="346" type="line"/>
      <point x="942" y="471"/>
      <point x="885" y="564"/>
      <point x="737" y="564" type="curve" smooth="yes"/>
      <point x="634" y="564"/>
      <point x="544" y="499"/>
      <point x="544" y="441" type="curve"/>
      <point x="562" y="441" type="line"/>
      <point x="562" y="498"/>
      <point x="494" y="565"/>
      <point x="372" y="565" type="curve"/>
      <point x="242" y="565"/>
      <point x="183" y="464"/>
      <point x="183" y="406" type="curve"/>
      <point x="191" y="402" type="line"/>
      <point x="191" y="523" type="line"/>
      <point x="190" y="542"/>
      <point x="176" y="550"/>
      <point x="158" y="550" type="curve"/>
      <point x="37" y="550" type="line"/>
      <point x="31" y="550"/>
      <point x="30" y="535"/>
      <point x="30" y="523" type="curve"/>
      <point x="30" y="512"/>
      <point x="32" y="494"/>
      <point x="37" y="494" type="curve"/>
      <point x="109" y="464" type="line"/>
      <point x="113" y="462"/>
      <point x="115" y="458"/>
      <point x="115" y="454" type="curve"/>
      <point x="115" y="91" type="line"/>
      <point x="115" y="82"/>
      <point x="113" y="79"/>
      <point x="107" y="74" type="curve" smooth="yes"/>
      <point x="99" y="68"/>
      <point x="76" y="53"/>
      <point x="74" y="49" type="curve" smooth="yes"/>
      <point x="72" y="45"/>
      <point x="70" y="37"/>
      <point x="70" y="25" type="curve" smooth="yes"/>
      <point x="70" y="11"/>
      <point x="72" y="0"/>
      <point x="74" y="0" type="curve"/>
      <point x="289" y="0" type="line"/>
      <point x="293" y="0"/>
      <point x="296" y="12"/>
      <point x="296" y="26" type="curve" smooth="yes"/>
      <point x="296" y="38"/>
      <point x="294" y="48"/>
      <point x="292" y="49" type="curve" smooth="yes"/>
      <point x="288" y="51"/>
      <point x="240" y="67"/>
      <point x="228" y="74" type="curve"/>
      <point x="220" y="76"/>
      <point x="217" y="83"/>
      <point x="216" y="95" type="curve"/>
      <point x="216" y="310" type="line"/>
      <point x="216" y="421"/>
      <point x="275" y="474"/>
      <point x="342" y="474" type="curve"/>
      <point x="415" y="474"/>
      <point x="485" y="441"/>
      <point x="485" y="323" type="curve" smooth="yes"/>
      <point x="485" y="91" type="line"/>
      <point x="485" y="82"/>
      <point x="483" y="79"/>
      <point x="477" y="74" type="curve" smooth="yes"/>
      <point x="469" y="68"/>
      <point x="450" y="53"/>
      <point x="448" y="49" type="curve" smooth="yes"/>
      <point x="446" y="45"/>
      <point x="444" y="37"/>
      <point x="444" y="25" type="curve" smooth="yes"/>
      <point x="444" y="11"/>
      <point x="446" y="0"/>
      <point x="448" y="0" type="curve"/>
      <point x="667" y="0" type="line"/>
      <point x="671" y="0"/>
      <point x="674" y="12"/>
      <point x="674" y="26" type="curve" smooth="yes"/>
      <point x="674" y="38"/>
      <point x="672" y="48"/>
      <point x="670" y="49" type="curve" smooth="yes"/>
      <point x="666" y="51"/>
      <point x="611" y="67"/>
      <point x="599" y="74" type="curve"/>
      <point x="591" y="76"/>
      <point x="588" y="83"/>
      <point x="587" y="95" type="curve"/>
      <point x="587" y="333" type="line"/>
      <point x="587" y="423"/>
      <point x="650" y="474"/>
      <point x="713" y="474" type="curve"/>
      <point x="772" y="474"/>
      <point x="840" y="441"/>
      <point x="840" y="323" type="curve"/>
      <point x="840" y="91" type="line"/>
      <point x="840" y="82"/>
      <point x="838" y="79"/>
      <point x="832" y="74" type="curve" smooth="yes"/>
      <point x="824" y="68"/>
      <point x="805" y="53"/>
      <point x="803" y="49" type="curve" smooth="yes"/>
      <point x="801" y="45"/>
      <point x="799" y="37"/>
      <point x="799" y="25" type="curve" smooth="yes"/>
      <point x="799" y="11"/>
      <point x="801" y="0"/>
      <point x="803" y="0" type="curve"/>
      <point x="1022" y="0" type="line"/>
      <point x="1026" y="0"/>
      <point x="1029" y="12"/>
      <point x="1029" y="26" type="curve" smooth="yes"/>
      <point x="1029" y="38"/>
      <point x="1027" y="48"/>
      <point x="1025" y="49" type="curve" smooth="yes"/>
      <point x="1021" y="51"/>
      <point x="966" y="67"/>
      <point x="954" y="74" type="curve"/>
      <point x="946" y="76"/>
      <point x="943" y="83"/>
      <point x="942" y="95" type="curve"/>
    </contour>
  </outline>
</glyph>
<glyph name="n" format="1">
  <advance width="703"/>
  <unicode hex="006E"/>
  <outline>
    <contour>
      <point x="510" y="298" type="line" smooth="yes"/>
      <point x="510" y="414"/>
      <point x="460" y="480"/>
      <point x="363" y="480" type="curve"/>
      <point x="268" y="480"/>
      <point x="210" y="408"/>
      <point x="210" y="297" type="curve" smooth="yes"/>
      <point x="210" y="110" type="line"/>
      <point x="210" y="63"/>
      <point x="235" y="49"/>
      <point x="292" y="49" type="curve"/>
      <point x="292" y="0" type="line"/>
      <point x="72" y="0" type="line"/>
      <point x="72" y="49" type="line"/>
      <point x="102" y="49"/>
      <point x="115" y="65"/>
      <point x="115" y="110" type="curve"/>
      <point x="115" y="397" type="line"/>
      <point x="115" y="478"/>
      <point x="98" y="500"/>
      <point x="49" y="500" type="curve"/>
      <point x="49" y="550" type="line"/>
      <point x="138" y="550" type="line"/>
      <point x="168" y="550"/>
      <point x="185" y="524"/>
      <point x="186" y="500" type="curve"/>
      <point x="193" y="402" type="line"/>
      <point x="178" y="403" type="line"/>
      <point x="178" y="474"/>
      <point x="262" y="565"/>
      <point x="385" y="565" type="curve"/>
      <point x="531" y="565"/>
      <point x="606" y="489"/>
      <point x="606" y="282" type="curve" smooth="yes"/>
      <point x="606" y="109" type="line"/>
      <point x="606" y="63"/>
      <point x="628" y="49"/>
      <point x="680" y="49" type="curve"/>
      <point x="680" y="0" type="line"/>
      <point x="467" y="0" type="line"/>
      <point x="467" y="49" type="line"/>
      <point x="498" y="49"/>
      <point x="510" y="68"/>
      <point x="510" y="111" type="curve"/>
    </contour>
  </outline>
</glyph>
<glyph name="o" format="1">
  <advance width="661"/>
  <unicode hex="006F"/>
  <outline>
    <contour>
      <point x="330" y="567" type="curve" smooth="yes"/>
      <point x="489" y="567"/>
      <point x="619" y="435"/>
      <point x="619" y="274" type="curve" smooth="yes"/>
      <point x="619" y="114"/>
      <point x="489" y="-18"/>
      <point x="330" y="-18" type="curve" smooth="yes"/>
      <point x="171" y="-18"/>
      <point x="41" y="114"/>
      <point x="41" y="274" type="curve" smooth="yes"/>
      <point x="41" y="435"/>
      <point x="171" y="567"/>
    </contour>
    <contour>
      <point x="139" y="274" type="curve" smooth="yes"/>
      <point x="139" y="156"/>
      <point x="214" y="64"/>
      <point x="329" y="64" type="curve" smooth="yes"/>
      <point x="444" y="64"/>
      <point x="517" y="156"/>
      <point x="517" y="274" type="curve" smooth="yes"/>
      <point x="517" y="392"/>
      <point x="441" y="488"/>
      <point x="330" y="488" type="curve" smooth="yes"/>
      <point x="215" y="488"/>
      <point x="139" y="392"/>
    </contour>
  </outline>
</glyph>
<glyph name="p" format="1">
  <advance width="697"/>
  <unicode hex="0070"/>
  <outline>
    <contour>
      <point x="359" y="80" type="curve"/>
      <point x="264" y="80"/>
      <point x="185" y="158"/>
      <point x="185" y="275" type="curve" smooth="yes"/>
      <point x="185" y="389"/>
      <point x="269" y="471"/>
      <point x="370" y="471" type="curve" smooth="yes"/>
      <point x="481" y="471"/>
      <point x="547" y="383"/>
      <point x="547" y="275" type="curve" smooth="yes"/>
      <point x="547" y="167"/>
      <point x="485" y="80"/>
    </contour>
    <contour>
      <point x="90" y="461" type="curve"/>
      <point x="90" y="-158" type="line"/>
      <point x="90" y="-167"/>
      <point x="79" y="-171"/>
      <point x="73" y="-176" type="curve" smooth="yes"/>
      <point x="65" y="-182"/>
      <point x="48" y="-198"/>
      <point x="45" y="-201" type="curve" smooth="yes"/>
      <point x="43" y="-208"/>
      <point x="43" y="-213"/>
      <point x="42" y="-225" type="curve" smooth="yes"/>
      <point x="43" y="-239"/>
      <point x="44" y="-245"/>
      <point x="45" y="-250" type="curve"/>
      <point x="275" y="-250" type="line"/>
      <point x="277" y="-245"/>
      <point x="279" y="-239"/>
      <point x="279" y="-225" type="curve" smooth="yes"/>
      <point x="279" y="-213"/>
      <point x="278" y="-208"/>
      <point x="274" y="-201" type="curve"/>
      <point x="273" y="-198"/>
      <point x="215" y="-182"/>
      <point x="202" y="-176" type="curve" smooth="yes"/>
      <point x="194" y="-173"/>
      <point x="191" y="-168"/>
      <point x="190" y="-160" type="curve"/>
      <point x="190" y="-150"/>
      <point x="190" y="100"/>
      <point x="190" y="138" type="curve"/>
      <point x="174" y="125" type="line"/>
      <point x="174" y="73"/>
      <point x="263" y="-10"/>
      <point x="372" y="-10" type="curve" smooth="yes"/>
      <point x="531" y="-10"/>
      <point x="652" y="115"/>
      <point x="652" y="276" type="curve" smooth="yes"/>
      <point x="652" y="436"/>
      <point x="542" y="562"/>
      <point x="383" y="562" type="curve" smooth="yes"/>
      <point x="255" y="562"/>
      <point x="176" y="463"/>
      <point x="176" y="416" type="curve"/>
      <point x="187" y="409" type="line"/>
      <point x="183" y="523" type="line"/>
      <point x="182" y="542"/>
      <point x="171" y="550"/>
      <point x="153" y="550" type="curve"/>
      <point x="17" y="550" type="line"/>
      <point x="15" y="544"/>
      <point x="14" y="538"/>
      <point x="14" y="525" type="curve" smooth="yes"/>
      <point x="14" y="512"/>
      <point x="14" y="511"/>
      <point x="17" y="505" type="curve" smooth="yes"/>
      <point x="19" y="501"/>
      <point x="63" y="483"/>
      <point x="79" y="477" type="curve" smooth="yes"/>
      <point x="86" y="474"/>
      <point x="90" y="468"/>
    </contour>
  </outline>
</glyph>
<glyph name="q" format="1">
  <advance width="672"/>
  <unicode hex="0071"/>
  <outline>
    <contour>
      <point x="497" y="272" type="curve" smooth="yes"/>
      <point x="497" y="163"/>
      <point x="423" y="65"/>
      <point x="316" y="65" type="curve"/>
      <point x="224" y="65"/>
      <point x="147" y="134"/>
      <point x="147" y="264" type="curve"/>
      <point x="147" y="374"/>
      <point x="211" y="471"/>
      <point x="317" y="471" type="curve"/>
      <point x="425" y="471"/>
      <point x="497" y="397"/>
    </contour>
    <contour>
      <point x="492" y="-223" type="line"/>
      <point x="493" y="-242"/>
      <point x="504" y="-250"/>
      <point x="522" y="-250" type="curve"/>
      <point x="665" y="-250" type="line"/>
      <point x="671" y="-250"/>
      <point x="675" y="-237"/>
      <point x="675" y="-225" type="curve"/>
      <point x="675" y="-214"/>
      <point x="670" y="-199"/>
      <point x="665" y="-199" type="curve"/>
      <point x="593" y="-163" type="line"/>
      <point x="593" y="546" type="line"/>
      <point x="558" y="546" type="line"/>
      <point x="547" y="546"/>
      <point x="542" y="539"/>
      <point x="538" y="531" type="curve"/>
      <point x="485" y="442" type="line"/>
      <point x="506" y="444" type="line"/>
      <point x="506" y="494"/>
      <point x="410" y="562"/>
      <point x="321" y="562" type="curve"/>
      <point x="180" y="562"/>
      <point x="40" y="454"/>
      <point x="40" y="260" type="curve"/>
      <point x="40" y="108"/>
      <point x="139" y="-19"/>
      <point x="306" y="-19" type="curve"/>
      <point x="423" y="-19"/>
      <point x="507" y="58"/>
      <point x="507" y="113" type="curve"/>
      <point x="492" y="107" type="line"/>
    </contour>
  </outline>
</glyph>
<glyph name="r" format="1">
  <advance width="451"/>
  <unicode hex="0072"/>
  <outline>
    <contour>
      <point x="106" y="98" type="line"/>
      <point x="106" y="63"/>
      <point x="77" y="49"/>
      <point x="36" y="49" type="curve"/>
      <point x="36" y="0" type="line"/>
      <point x="287" y="0" type="line"/>
      <point x="287" y="49" type="line"/>
      <point x="237" y="49"/>
      <point x="204" y="62"/>
      <point x="204" y="98" type="curve"/>
      <point x="204" y="328" type="line"/>
      <point x="204" y="429"/>
      <point x="244" y="484"/>
      <point x="315" y="484" type="curve"/>
      <point x="357" y="484"/>
      <point x="381" y="453"/>
      <point x="381" y="451" type="curve"/>
      <point x="419" y="451" type="line"/>
      <point x="430" y="537" type="line"/>
      <point x="414" y="554"/>
      <point x="383" y="565"/>
      <point x="341" y="565" type="curve"/>
      <point x="261" y="565"/>
      <point x="180" y="500"/>
      <point x="180" y="450" type="curve"/>
      <point x="189" y="457" type="line"/>
      <point x="180" y="516" type="line" smooth="yes"/>
      <point x="177" y="538"/>
      <point x="154" y="550"/>
      <point x="136" y="550" type="curve"/>
      <point x="34" y="550" type="line"/>
      <point x="34" y="500" type="line"/>
      <point x="77" y="500"/>
      <point x="106" y="487"/>
      <point x="106" y="440" type="curve"/>
    </contour>
  </outline>
</glyph>
<glyph name="s" format="1">
  <advance width="461"/>
  <unicode hex="0073"/>
  <outline>
    <contour>
      <point x="277" y="318" type="curve" smooth="yes"/>
      <point x="240" y="333"/>
      <point x="152" y="360"/>
      <point x="152" y="416" type="curve"/>
      <point x="152" y="463"/>
      <point x="203" y="486"/>
      <point x="253" y="486" type="curve"/>
      <point x="315" y="486"/>
      <point x="362" y="441"/>
      <point x="362" y="413" type="curve"/>
      <point x="367" y="413"/>
      <point x="375" y="411"/>
      <point x="382" y="411" type="curve" smooth="yes"/>
      <point x="389" y="411"/>
      <point x="399" y="413"/>
      <point x="404" y="415" type="curve"/>
      <point x="391" y="525" type="line"/>
      <point x="391" y="529"/>
      <point x="355" y="566"/>
      <point x="261" y="566" type="curve"/>
      <point x="162" y="566"/>
      <point x="51" y="505"/>
      <point x="51" y="408" type="curve"/>
      <point x="51" y="305"/>
      <point x="143" y="269"/>
      <point x="178" y="253" type="curve" smooth="yes"/>
      <point x="213" y="237"/>
      <point x="322" y="210"/>
      <point x="322" y="148" type="curve"/>
      <point x="322" y="96"/>
      <point x="266" y="68"/>
      <point x="214" y="68" type="curve"/>
      <point x="140" y="68"/>
      <point x="91" y="115"/>
      <point x="91" y="164" type="curve"/>
      <point x="82" y="168"/>
      <point x="75" y="168"/>
      <point x="65" y="168" type="curve" smooth="yes"/>
      <point x="56" y="168"/>
      <point x="44" y="166"/>
      <point x="37" y="164" type="curve"/>
      <point x="56" y="49" type="line"/>
      <point x="52" y="49"/>
      <point x="110" y="-12"/>
      <point x="224" y="-12" type="curve"/>
      <point x="330" y="-12"/>
      <point x="426" y="52"/>
      <point x="426" y="158" type="curve"/>
      <point x="426" y="265"/>
      <point x="307" y="306"/>
    </contour>
  </outline>
</glyph>
<glyph name="t" format="1">
  <advance width="428"/>
  <unicode hex="0074"/>
  <outline>
    <contour>
      <point x="388" y="83" type="curve"/>
      <point x="380" y="83"/>
      <point x="357" y="73"/>
      <point x="297" y="73" type="curve"/>
      <point x="217" y="73"/>
      <point x="208" y="138"/>
      <point x="208" y="219" type="curve"/>
      <point x="208" y="475" type="line"/>
      <point x="382" y="475" type="line"/>
      <point x="386" y="475"/>
      <point x="394" y="502"/>
      <point x="394" y="518" type="curve" smooth="yes"/>
      <point x="394" y="538"/>
      <point x="386" y="550"/>
      <point x="381" y="550" type="curve"/>
      <point x="207" y="550" type="line"/>
      <point x="205" y="681" type="line"/>
      <point x="198" y="687"/>
      <point x="178" y="690"/>
      <point x="168" y="689" type="curve" smooth="yes"/>
      <point x="157" y="689"/>
      <point x="137" y="685"/>
      <point x="130" y="679" type="curve"/>
      <point x="130" y="560"/>
      <point x="45" y="530"/>
      <point x="24" y="530" type="curve" smooth="yes"/>
      <point x="17" y="530"/>
      <point x="12" y="514"/>
      <point x="12" y="500" type="curve" smooth="yes"/>
      <point x="12" y="489"/>
      <point x="20" y="477"/>
      <point x="27" y="477" type="curve"/>
      <point x="103" y="477" type="line"/>
      <point x="103" y="211" type="line"/>
      <point x="103" y="93"/>
      <point x="137" y="-10"/>
      <point x="292" y="-10" type="curve"/>
      <point x="364" y="-10"/>
      <point x="386" y="6"/>
      <point x="389" y="10" type="curve" smooth="yes"/>
      <point x="395" y="16"/>
      <point x="397" y="35"/>
      <point x="397" y="49" type="curve" smooth="yes"/>
      <point x="397" y="63"/>
      <point x="392" y="83"/>
    </contour>
  </outline>
</glyph>
<glyph name="u" format="1">
  <advance width="720"/>
  <unicode hex="0075"/>
  <outline>
    <contour>
      <point x="511" y="231" type="line"/>
      <point x="511" y="156"/>
      <point x="449" y="69"/>
      <point x="356" y="67" type="curve"/>
      <point x="267" y="67"/>
      <point x="216" y="109"/>
      <point x="216" y="227" type="curve"/>
      <point x="216" y="486" type="line"/>
      <point x="216" y="518"/>
      <point x="201" y="550"/>
      <point x="173" y="550" type="curve"/>
      <point x="50" y="550" type="line"/>
      <point x="50" y="500" type="line"/>
      <point x="94" y="500"/>
      <point x="121" y="483"/>
      <point x="121" y="449" type="curve"/>
      <point x="121" y="204" type="line"/>
      <point x="121" y="81"/>
      <point x="186" y="-15"/>
      <point x="330" y="-15" type="curve"/>
      <point x="448" y="-15"/>
      <point x="536" y="73"/>
      <point x="536" y="132" type="curve"/>
      <point x="522" y="127" type="line"/>
      <point x="522" y="41"/>
      <point x="556" y="0"/>
      <point x="596" y="0" type="curve"/>
      <point x="681" y="0" type="line"/>
      <point x="688" y="0"/>
      <point x="687" y="49"/>
      <point x="680" y="49" type="curve" smooth="yes"/>
      <point x="637" y="49"/>
      <point x="606" y="66"/>
      <point x="606" y="106" type="curve"/>
      <point x="606" y="486" type="line"/>
      <point x="606" y="523"/>
      <point x="588" y="550"/>
      <point x="561" y="550" type="curve"/>
      <point x="437" y="550" type="line"/>
      <point x="437" y="500" type="line"/>
      <point x="486" y="500"/>
      <point x="511" y="483"/>
      <point x="511" y="450" type="curve"/>
    </contour>
  </outline>
</glyph>
<glyph name="v" format="1">
  <advance width="626"/>
  <unicode hex="0076"/>
  <outline>
    <contour>
      <point x="160" y="523" type="line"/>
      <point x="157" y="541"/>
      <point x="148" y="550"/>
      <point x="130" y="550" type="curve"/>
      <point x="-2" y="550" type="line"/>
      <point x="-9" y="550"/>
      <point x="-11" y="531"/>
      <point x="-11" y="522" type="curve" smooth="yes"/>
      <point x="-11" y="514"/>
      <point x="-6" y="499"/>
      <point x="0" y="498" type="curve"/>
      <point x="59" y="487" type="line"/>
      <point x="67" y="482"/>
      <point x="68" y="474"/>
      <point x="70" y="470" type="curve"/>
      <point x="244" y="13" type="line"/>
      <point x="246" y="7"/>
      <point x="252" y="2"/>
      <point x="260" y="0" type="curve"/>
      <point x="338" y="0" type="line"/>
      <point x="346" y="3"/>
      <point x="353" y="8"/>
      <point x="355" y="15" type="curve"/>
      <point x="581" y="472" type="line"/>
      <point x="583" y="476"/>
      <point x="585" y="478"/>
      <point x="590" y="481" type="curve" smooth="yes"/>
      <point x="595" y="484"/>
      <point x="616" y="493"/>
      <point x="624" y="497" type="curve" smooth="yes"/>
      <point x="628" y="499"/>
      <point x="629" y="513"/>
      <point x="629" y="525" type="curve" smooth="yes"/>
      <point x="629" y="533"/>
      <point x="627" y="550"/>
      <point x="620" y="550" type="curve"/>
      <point x="411" y="550" type="line"/>
      <point x="407" y="550"/>
      <point x="406" y="532"/>
      <point x="406" y="524" type="curve" smooth="yes"/>
      <point x="406" y="514"/>
      <point x="408" y="500"/>
      <point x="411" y="498" type="curve"/>
      <point x="473" y="477" type="line"/>
      <point x="478" y="477"/>
      <point x="478" y="472"/>
      <point x="478" y="470" type="curve"/>
      <point x="295" y="88" type="line"/>
      <point x="323" y="86" type="line"/>
    </contour>
  </outline>
</glyph>
<glyph name="w" format="1">
  <advance width="914"/>
  <unicode hex="0077"/>
  <outline>
    <contour>
      <point x="593" y="0" type="line"/>
      <point x="700" y="0" type="line"/>
      <point x="896" y="493" type="line"/>
      <point x="899" y="496"/>
      <point x="901" y="513"/>
      <point x="901" y="525" type="curve" smooth="yes"/>
      <point x="901" y="533"/>
      <point x="899" y="550"/>
      <point x="892" y="550" type="curve"/>
      <point x="732" y="550" type="line"/>
      <point x="728" y="550"/>
      <point x="727" y="532"/>
      <point x="727" y="524" type="curve" smooth="yes"/>
      <point x="727" y="514"/>
      <point x="731" y="504"/>
      <point x="734" y="502" type="curve"/>
      <point x="789" y="482" type="line"/>
      <point x="794" y="482"/>
      <point x="794" y="477"/>
      <point x="794" y="475" type="curve"/>
      <point x="647" y="84" type="line"/>
      <point x="671" y="84" type="line"/>
      <point x="512" y="544" type="line"/>
      <point x="510" y="547"/>
      <point x="507" y="550"/>
      <point x="501" y="551" type="curve"/>
      <point x="436" y="551" type="line"/>
      <point x="432" y="550"/>
      <point x="428" y="547"/>
      <point x="426" y="544" type="curve"/>
      <point x="267" y="84" type="line"/>
      <point x="289" y="83" type="line"/>
      <point x="161" y="479" type="line"/>
      <point x="161" y="486"/>
      <point x="212" y="503"/>
      <point x="219" y="506" type="curve" smooth="yes"/>
      <point x="223" y="508"/>
      <point x="226" y="518"/>
      <point x="226" y="531" type="curve" smooth="yes"/>
      <point x="226" y="543"/>
      <point x="222" y="550"/>
      <point x="215" y="550" type="curve"/>
      <point x="26" y="550" type="line"/>
      <point x="19" y="550"/>
      <point x="17" y="531"/>
      <point x="17" y="522" type="curve" smooth="yes"/>
      <point x="17" y="514"/>
      <point x="23" y="498"/>
      <point x="29" y="496" type="curve" smooth="yes"/>
      <point x="35" y="494"/>
      <point x="62" y="488"/>
      <point x="66" y="477" type="curve"/>
      <point x="212" y="0" type="line"/>
      <point x="322" y="0" type="line"/>
      <point x="480" y="433" type="line"/>
      <point x="457" y="434" type="line"/>
    </contour>
  </outline>
</glyph>
<glyph name="x" format="1">
  <advance width="635"/>
  <unicode hex="0078"/>
  <outline>
    <contour>
      <point x="197" y="75" type="curve"/>
      <point x="329" y="233" type="line"/>
      <point x="290" y="246" type="line"/>
      <point x="450" y="61" type="line"/>
      <point x="443.5" y="58.0"/>
      <point x="429" y="54"/>
      <point x="424" y="49" type="curve" smooth="yes"/>
      <point x="419" y="43"/>
      <point x="416" y="32"/>
      <point x="416" y="25" type="curve"/>
      <point x="416" y="18"/>
      <point x="420" y="0"/>
      <point x="429" y="0" type="curve"/>
      <point x="618" y="0" type="line"/>
      <point x="621" y="0"/>
      <point x="627" y="8"/>
      <point x="627" y="21" type="curve" smooth="yes"/>
      <point x="627" y="37"/>
      <point x="626" y="40"/>
      <point x="620" y="44" type="curve" smooth="yes"/>
      <point x="614" y="48"/>
      <point x="563" y="65"/>
      <point x="554" y="70" type="curve"/>
      <point x="355" y="325" type="line"/>
      <point x="371" y="279" type="line"/>
      <point x="561" y="488" type="line"/>
      <point x="574" y="499"/>
      <point x="601" y="508"/>
      <point x="602" y="511" type="curve"/>
      <point x="606" y="518"/>
      <point x="607" y="517"/>
      <point x="607" y="529" type="curve" smooth="yes"/>
      <point x="607" y="543"/>
      <point x="605" y="545"/>
      <point x="603" y="550" type="curve"/>
      <point x="387" y="550" type="line"/>
      <point x="386" y="545"/>
      <point x="385" y="543"/>
      <point x="384" y="529" type="curve" smooth="yes"/>
      <point x="385" y="517"/>
      <point x="385" y="518"/>
      <point x="387" y="511" type="curve" smooth="yes"/>
      <point x="390" y="508"/>
      <point x="436" y="499"/>
      <point x="444" y="493" type="curve" smooth="yes"/>
      <point x="446" y="491"/>
      <point x="447" y="489"/>
      <point x="446" y="486" type="curve"/>
      <point x="322" y="350" type="line"/>
      <point x="336" y="345" type="line"/>
      <point x="219" y="496" type="line"/>
      <point x="224" y="500"/>
      <point x="234" y="506"/>
      <point x="240" y="512" type="curve" smooth="yes"/>
      <point x="244" y="516"/>
      <point x="246" y="523"/>
      <point x="246" y="533" type="curve"/>
      <point x="246" y="544"/>
      <point x="244" y="550"/>
      <point x="239" y="550" type="curve"/>
      <point x="37" y="550" type="line"/>
      <point x="34" y="550"/>
      <point x="30" y="543"/>
      <point x="30" y="530" type="curve" smooth="yes"/>
      <point x="30" y="514"/>
      <point x="33" y="510"/>
      <point x="39" y="506" type="curve" smooth="yes"/>
      <point x="45" y="502"/>
      <point x="99" y="488"/>
      <point x="108" y="483" type="curve"/>
      <point x="273" y="264" type="line"/>
      <point x="265" y="304" type="line"/>
      <point x="60" y="74" type="line"/>
      <point x="52" y="68"/>
      <point x="6" y="52"/>
      <point x="3" y="49" type="curve" smooth="yes"/>
      <point x="1" y="42"/>
      <point x="1" y="37"/>
      <point x="0" y="25" type="curve" smooth="yes"/>
      <point x="1" y="11"/>
      <point x="2" y="5"/>
      <point x="3" y="0" type="curve"/>
      <point x="248" y="0" type="line"/>
      <point x="250" y="5"/>
      <point x="252" y="11"/>
      <point x="252" y="25" type="curve" smooth="yes"/>
      <point x="252" y="37"/>
      <point x="251" y="42"/>
      <point x="247" y="49" type="curve"/>
      <point x="246" y="52"/>
      <point x="222" y="53"/>
      <point x="209" y="59" type="curve" smooth="yes"/>
      <point x="201" y="62"/>
      <point x="198" y="67"/>
    </contour>
  </outline>
</glyph>
<glyph name="z" format="1">
  <advance width="519"/>
  <unicode hex="007A"/>
  <outline>
    <contour>
      <point x="390" y="82" type="line"/>
      <point x="399" y="82"/>
      <point x="403" y="88"/>
      <point x="405" y="94" type="curve"/>
      <point x="411" y="108"/>
      <point x="430" y="153"/>
      <point x="434" y="154" type="curve" smooth="yes"/>
      <point x="439" y="157"/>
      <point x="450" y="157"/>
      <point x="461" y="157" type="curve" smooth="yes"/>
      <point x="472" y="157"/>
      <point x="477" y="156"/>
      <point x="482" y="154" type="curve"/>
      <point x="455" y="1" type="line"/>
      <point x="44" y="1" type="line"/>
      <point x="34" y="1"/>
      <point x="27" y="20"/>
      <point x="27" y="34" type="curve"/>
      <point x="27" y="46"/>
      <point x="30" y="67"/>
      <point x="34" y="73" type="curve"/>
      <point x="345" y="474" type="line"/>
      <point x="349" y="463" type="line"/>
      <point x="146" y="463" type="line"/>
      <point x="137" y="464"/>
      <point x="128" y="460"/>
      <point x="123" y="452" type="curve" smooth="yes"/>
      <point x="117" y="441"/>
      <point x="84" y="388"/>
      <point x="81" y="385" type="curve" smooth="yes"/>
      <point x="76" y="383"/>
      <point x="69" y="383"/>
      <point x="58" y="383" type="curve" smooth="yes"/>
      <point x="47" y="383"/>
      <point x="42" y="384"/>
      <point x="37" y="385" type="curve"/>
      <point x="64" y="536" type="line"/>
      <point x="66" y="543"/>
      <point x="69" y="547"/>
      <point x="76" y="550" type="curve"/>
      <point x="455" y="550" type="line"/>
      <point x="465" y="550"/>
      <point x="471" y="532"/>
      <point x="471" y="522" type="curve"/>
      <point x="471" y="509"/>
      <point x="471" y="482"/>
      <point x="464" y="476" type="curve"/>
      <point x="150" y="65" type="line"/>
      <point x="148" y="82" type="line"/>
    </contour>
  </outline>
</glyph>
<glyph name="quoteright" format="1">
  <advance width="291"/>
  <unicode hex="2019"/>
  <outline>
    <contour>
      <point x="201" y="363" type="line"/>
      <point x="207" y="363"/>
      <point x="215" y="368"/>
      <point x="215" y="380" type="curve"/>
      <point x="215" y="574" type="line"/>
      <point x="215" y="635"/>
      <point x="195" y="651"/>
      <point x="136" y="651" type="curve" smooth="yes"/>
      <point x="79" y="651"/>
      <point x="58" y="635"/>
      <point x="58" y="574" type="curve" smooth="yes"/>
      <point x="58" y="517"/>
      <point x="64" y="493"/>
      <point x="137" y="493" type="curve"/>
      <point x="121" y="527" type="line"/>
      <point x="122" y="378" type="line"/>
      <point x="122" y="367"/>
      <point x="124" y="363"/>
      <point x="132" y="363" type="curve"/>
    </contour>
  </outline>
</glyph>
